<?xml version="1.0" encoding="UTF-8"?>
<svg id="Layer_2" data-name="Layer 2" xmlns="http://www.w3.org/2000/svg" viewBox="0 0 44.47 78.57">
  <defs>
    <style>
      .cls-1 {
        fill: #114e25;
      }

      .cls-2 {
        fill: #e68300;
      }

      .cls-3 {
        fill: #80c1b9;
      }

      .cls-4 {
        fill: #009574;
      }

      .cls-5 {
        fill: #016549;
      }
    </style>
  </defs>
  <g id="Layer_2-2" data-name="Layer 2">
    <g>
      <polygon class="cls-1" points="0 51.85 0 47.3 10.81 39.28 0 31.27 0 26.71 16.96 39.28 0 51.85"/>
      <path class="cls-1" d="M39.39,49.37L0,78.57v-4.56l37.21-27.58c2.25-1.67,3.6-4.34,3.6-7.15s-1.35-5.48-3.6-7.15L0,4.56V0l39.39,29.19c3.18,2.36,5.08,6.13,5.08,10.09s-1.9,7.73-5.08,10.09Z"/>
      <path class="cls-5" d="M35.03,43.49c1.33-.98,2.12-2.56,2.12-4.21s-.79-3.23-2.12-4.21L0,9.12v-4.56l37.21,27.58c2.26,1.67,3.6,4.34,3.6,7.15s-1.35,5.48-3.6,7.15L0,74.01v-4.56l35.03-25.96Z"/>
      <polygon class="cls-2" points="23.11 39.28 0 56.41 0 51.85 16.96 39.28 0 26.71 0 22.15 23.11 39.28"/>
      <polygon class="cls-1" points="0 22.15 0 17.6 29.26 39.28 0 60.97 0 56.41 23.11 39.28 0 22.15"/>
      <path class="cls-4" d="M32.85,40.55c.4-.3.64-.77.64-1.27s-.24-.97-.64-1.27L0,13.67v-4.56l35.03,25.96c1.33.98,2.12,2.56,2.12,4.21s-.79,3.22-2.12,4.21L0,69.45v-4.56l32.85-24.34Z"/>
      <path class="cls-3" d="M32.85,38.02c.4.3.64.77.64,1.27s-.24.97-.64,1.27L0,64.89v-3.92l29.26-21.69L0,17.6v-3.92l32.85,24.34Z"/>
    </g>
  </g>
</svg>