<?xml version="1.0" encoding="UTF-8"?>
<svg id="Layer_2" data-name="Layer 2" xmlns="http://www.w3.org/2000/svg" viewBox="0 0 502.55 33.84">
  <defs>
    <style>
      .cls-1 {
        fill: #114e25;
      }

      .cls-2 {
        fill: #d37d0b;
      }

      .cls-3 {
        fill: #fff;
      }

      .cls-4 {
        fill: #80bcb4;
      }
    </style>
  </defs>
  <g id="Meet_the_People_content" data-name="Meet the People content">
    <g>
      <path class="cls-4" d="M468.71,16.92c0,9.34,7.57,16.92,16.92,16.92s16.92-7.58,16.92-16.92-7.58-16.92-16.92-16.92-16.92,7.58-16.92,16.92Z"/>
      <circle class="cls-1" cx="485.63" cy="16.92" r="11.51"/>
      <path class="cls-2" d="M478.1,16.92c0,4.16,3.37,7.53,7.53,7.53s7.53-3.37,7.53-7.53-3.37-7.53-7.53-7.53-7.53,3.37-7.53,7.53Z"/>
      <path class="cls-3" d="M481.72,16.92c0,2.16,1.75,3.91,3.91,3.91s3.91-1.75,3.91-3.91-1.75-3.91-3.91-3.91-3.91,1.75-3.91,3.91Z"/>
    </g>
    <rect class="cls-4" width="485.9" height="1"/>
  </g>
</svg>