<?xml version="1.0" encoding="UTF-8"?>
<svg id="Layer_2" data-name="Layer 2" xmlns="http://www.w3.org/2000/svg" viewBox="0 0 31.89 63.78">
  <defs>
    <style>
      .cls-1 {
        fill: #114e25;
      }

      .cls-2 {
        fill: #e68300;
      }

      .cls-3 {
        fill: #008063;
      }

      .cls-4 {
        fill: #80c1b9;
      }

      .cls-5 {
        fill: #009574;
      }

      .cls-6 {
        fill: #016549;
      }
    </style>
  </defs>
  <g id="Layer_2-2" data-name="Layer 2">
    <path class="cls-2" d="M0,23.91v1.6c3.52,0,6.38,2.86,6.38,6.38s-2.86,6.38-6.38,6.38v1.58c4.4,0,7.97-3.57,7.97-7.97s-3.57-7.97-7.97-7.97Z"/>
    <path class="cls-4" d="M15.94,31.88c0,1.65-.25,3.24-.72,4.74-.06.2-.13.4-.2.6-.14.4-.29.79-.47,1.17v.01c-2.47,5.56-8.05,9.44-14.55,9.44v-3.99c2.06,0,4.01-.52,5.7-1.45,1.02-.56,1.95-1.25,2.76-2.06,2.16-2.16,3.5-5.16,3.5-8.46,0-1.86-.42-3.6201-1.18-5.19-.12-.25-.25-.5-.39-.7401-.27-.47-.58-.93-.92-1.37,0,0,.01,0,0-.01-2.2-2.8199-5.62-4.64-9.47-4.64v-3.97c6.48,0,12.05,3.86,14.55,9.42v.0099c.17.38.33.77.47,1.17.07.2.14.4.2.6.47,1.49.72,3.08.72,4.72Z"/>
    <path class="cls-5" d="M19.93,31.88v.0099c0,2.06-.31,4.06-.9,5.93-.19.6201-.41,1.23-.67,1.82-.2401.6-.53,1.18-.84,1.75-.31.56-.64,1.11-.99,1.63v.01c-.36.53-.74,1.04-1.15,1.53-.4.49-.83.96-1.29,1.41-1.35,1.36-2.9,2.52-4.59,3.44-2.82,1.53-6.06,2.4-9.5,2.4v-3.9901c6.48,0,12.05-3.86,14.55-9.42v-.01c.18-.38.33-.77.47-1.17.07-.2.14-.4.2-.6.47-1.5.72-3.09.72-4.74,0-1.64-.25-3.23-.72-4.72-.06-.2-.13-.4-.2-.6-.14-.4-.29-.79-.47-1.17v-.0099C12.07,19.8199,6.49,15.94,0,15.94v-3.9901c1.81,0,3.57.2401,5.23.7.24.07.48.14.71.21.62.18,1.23.41,1.82.66.6.25,1.18.54,1.75.85.56.3,1.11.63,1.63.98l.01.01c.53.36,1.04.74,1.53,1.14.9901.8199,1.9,1.72,2.71,2.71.4.49.78,1,1.14,1.53l.01.01c.35.52.68,1.0699.98,1.63.32.5699.6,1.15.85,1.75.25.6.47,1.2.66,1.8199.08.23.15.47.21.71.45,1.67.69,3.42.69,5.22Z"/>
    <path class="cls-6" d="M27.89,31.88c0,15.41-12.48,27.89-27.89,27.9v-3.99c6.52,0,12.43-2.61,16.75-6.84.38-.37.74-.75,1.09-1.14.35-.39.69-.79,1.01-1.21.33-.41.64-.84.93-1.28.3-.43.58-.8799.85-1.34.13-.23.26-.46.39-.69,1.11-2.03,1.93-4.24,2.4-6.57.17-.78.29-1.58.37-2.38.09-.81.13-1.63.13-2.46,0-4.63-1.32-8.96-3.62-12.6201-.15-.25-.3101-.49-.47-.73C15.53,12.16,8.26,7.97,0,7.97v-3.98c7.7,0,14.67,3.12,19.72,8.17,1.26,1.26,2.41,2.64,3.41,4.13.47.69.91,1.41,1.32,2.15.27.49.52.99.77,1.5.36.77.69,1.55.98,2.35.16.43.31.86.44,1.3.23.72.42,1.46.59,2.21.43,1.96.66,3.99.66,6.08Z"/>
    <path class="cls-3" d="M23.91,31.9c0,.82-.04,1.64-.12,2.44-.09.81-.21,1.6-.37,2.38-.47,2.33-1.29,4.54-2.4,6.57-.13.23-.26.46-.39.69-.27.46-.55.91-.85,1.34-.29.44-.6.8701-.93,1.28-.32.42-.66.82-1.01,1.21-.35.39-.71.77-1.09,1.14-4.3,4.2401-10.22,6.86-16.75,6.86v-3.9901c3.44,0,6.68-.87,9.5-2.41,1.69-.92,3.24-2.08,4.59-3.44.46-.45.89-.92,1.29-1.41.41-.4901.79-1,1.15-1.53v-.01c.36-.52.69-1.07.99-1.63.31-.57.6-1.15.84-1.75.2599-.59.48-1.2.67-1.82.59-1.87.9-3.87.9-5.93h.01c0-1.81-.24-3.57-.7-5.23-.06-.24-.1299-.48-.21-.71-.18-.62-.41-1.23-.66-1.8199-.25-.6-.53-1.1801-.85-1.75-.3-.5601-.63-1.11-.98-1.63l-.01-.01c-.36-.53-.74-1.04-1.14-1.53-.81-.99-1.72-1.89-2.71-2.71-.49-.4-1-.78-1.53-1.14l-.01-.01c-.52-.35-1.07-.68-1.63-.98-.57-.31-1.15-.6-1.75-.85-.6-.25-1.2-.47-1.82-.66-.23-.07-.47-.14-.71-.21-1.67-.45-3.42-.69-5.22-.69h-.01v-3.99c8.26,0,15.53,4.19,19.83,10.56.16.24.32.48.47.73,2.28,3.67,3.61,8,3.61,12.64Z"/>
    <path class="cls-1" d="M10.78,26.69c-.12-.25-.25-.5-.39-.7401-.27-.48-.58-.93-.92-1.37v-.01c-.28-.35-.57-.6899-.88-1.0099-.16-.16-.32-.31-.48-.47-.33-.31-.67-.59-1.02-.85h-.01c-.72-.54-1.5-.99-2.33-1.34h-.01c-.21-.09-.42-.17-.6299-.25-.22-.08-.4301-.15-.65-.21-.22-.07-.44-.13-.67-.1801-.22-.06-.44-.1-.67-.14-.23-.05-.46-.08-.7-.11-.47-.06-.94-.09-1.42-.09v3.99c4.4,0,7.97,3.57,7.97,7.97s-3.57,7.97-7.97,7.97v3.99c.45,0,.89-.02,1.32-.07.22-.03.45-.06.67-.09.22-.04.4301-.08.64-.13.21-.05.42-.1.63-.16.41-.11.81-.25,1.21-.41.19-.08.39-.16.58-.25.22-.11.4399-.21.65-.33,1.02-.56,1.95-1.25,2.76-2.06,2.16-2.16,3.5-5.16,3.5-8.46,0-1.86-.42-3.6201-1.18-5.19ZM0,0v3.99c7.7,0,14.67,3.12,19.72,8.17,1.26,1.26,2.41,2.64,3.41,4.13.47.69.91,1.41,1.32,2.15.27.49.53.99.77,1.5.36.77.69,1.55.98,2.35.16.43.31.86.44,1.3.23.72.42,1.46.59,2.21.44,1.96.67,4,.67,6.09,0,15.41-12.49,27.9-27.9,27.9v3.99c17.61,0,31.89-14.28,31.89-31.89S17.62,0,0,0Z"/>
  </g>
</svg>