<?xml version="1.0" encoding="UTF-8"?>
<svg id="Layer_2" data-name="Layer 2" xmlns="http://www.w3.org/2000/svg" xmlns:xlink="http://www.w3.org/1999/xlink" viewBox="0 0 631.86 537.33">
  <defs>
    <style>
      .cls-1 {
        fill: #80bcb4;
      }

      .cls-1, .cls-2 {
        stroke: #fff;
        stroke-linecap: round;
        stroke-linejoin: round;
        stroke-width: 1px;
      }

      .cls-2 {
        fill: #d4e2e2;
      }

      .cls-3 {
        mask: url(#mask);
      }

      .cls-4, .cls-5 {
        fill: none;
      }

      .cls-5 {
        stroke: #80bcb4;
        stroke-miterlimit: 10;
        stroke-width: 3px;
      }

      .cls-6 {
        fill: url(#linear-gradient);
      }

      .cls-7 {
        filter: url(#luminosity-noclip);
      }
    </style>
    <filter id="luminosity-noclip" x="96.51" y="-7.11" width="536.35" height="527.09" color-interpolation-filters="sRGB" filterUnits="userSpaceOnUse">
      <feFlood flood-color="#fff" result="bg"/>
      <feBlend in="SourceGraphic" in2="bg"/>
    </filter>
    <linearGradient id="linear-gradient" x1="383.19" y1="256.44" x2="632.86" y2="256.44" gradientUnits="userSpaceOnUse">
      <stop offset="0" stop-color="#fff"/>
      <stop offset=".29" stop-color="#a5a5a5"/>
      <stop offset=".54" stop-color="#5e5e5e"/>
      <stop offset=".75" stop-color="#2b2b2b"/>
      <stop offset=".91" stop-color="#0b0b0b"/>
      <stop offset="1" stop-color="#000"/>
    </linearGradient>
    <mask id="mask" x="96.51" y="-7.11" width="536.35" height="527.09" maskUnits="userSpaceOnUse">
      <g class="cls-7">
        <rect class="cls-6" x="383.19" y="-7.11" width="249.68" height="527.09"/>
      </g>
    </mask>
  </defs>
  <g id="Layer_1-2" data-name="Layer 1">
    <g class="cls-3">
      <g>
        <path id="AL" class="cls-2" d="M472.05,326.09l.5.4,2,2.89,1.4.5,1.9,1.3,1.4,3.19.1,2.19-.5,2.59.3,2.09-.8.8.7,2,.2,1.9,1.2,2.19,1.2,1.1,1.3,2.39,1.6-.2,1.3,1.1v1.1l1.1,1.79-.8,2.59-1.7.8-1.2,3.09-.3,1.99-.6.5-1.9.3-1.7,1.3,1,2.2-.9.7-.3,1.5-.7.7-2.69-.9-.7-2.49-1.7-2.69-4.89-2.59-1.2-1.1.4-1.5-.1-1.4-1.4-2.39.3-2.59.8-2.19-.3-2.69.1-2.09-.7-2.89.5-2.09.9-1.3-.2-2.19-1.5-1.1-1.6-.2v-3.09l-.3-.6h1.7l-1.7-2.79,3.19-5.29,1.1.3.8,2.09,3.39-1.2h0Z"/>
        <path id="AD" class="cls-2" d="M241.34,326.79l-2.79,1.1-.7-.4v-2.09l.9-.7,2.59.6v1.5h0Z"/>
        <path id="AT" class="cls-2" d="M425.27,233.13l-.9,2.39.1.8,1.6,2.89,2.29,2.89-.6.7-.6,1.9.7,1.99-3.89.3-2.49-.9-1.3,1.4,2.59.7.5,1.1-.5,1.4-2.19,1.2.4,1.5-.5.7,1.1,1.59-.3,1.8-2.49.5-1.8,1.7-1.3.9-.1,1.89-2.39-.5-1.6.2-2.29,1.1-2.79-.2-2.59.2-1.9.7-1,1.3-2.99,1.2-4.99-.7-4.99-.9-2.59-.5-3.99-.3-8.58-1.5-1.1-.5-3.09-3.49v-2.29l-4.69,1.5-3.09-.2-3.39.3-1.4.6-1.2,2.19-1.1.4-2.09-.4-.9-.8-2.99-.3-.5-1.5-.8-.3-1.99,1.9-2.29-.4-1.5-.8-.4-1-3.29-.8.3-.8-1.1-2.49,1-2.99-.9-.7,1.7-.5.7-.5,3.49,1.6.9,1.4,1.2.3-.1,1.3,1.6-.5,1-1.6.2-1.9,2.79-.1,2.69.4,1.4,1.89,3.79-.5,1.1-.9,3.89-1.5,5.69-.5.1-1.4,2,.3,1.5.8,2.49-.5,1.1.5.2,1.1,1.2.9,1.7.4.3-1.5-.3-1.9-1.7-.3.6-1.3-.1-1.3-2.49-2.79.6-1.3,3.09-1.8,2.89-.8,1-1,.7-2.89,2.29.9,1.3-.9.2-2.79,2.19,1.2.8,1.3,3.89.4,1.4-.7,2.49.4.1-1.1,1.3-1.6h1.2l.3-3.19,1.2-.2,1.6.8,1.4-.4,4.79,1.7,1.5-.1,2.99,1.7,3.79.2,1.2-.9,5.09,1.5,1,1.6h0Z"/>
        <path id="BE" class="cls-2" d="M287.82,200.12l1.6-.5.8.8,1.2.1,2.99,2.29-.4,1.5,1.7.7.4,2-2.29,1.3-.6,1.7-1.7-.7-1.3,1.3-1.4,2.49-.2,1.7,2,2.39-1.1,1.7-3.39.4-2.79-2.59-3.29-1.5-1.69-.1-.4-2-.6-.6.8-2.69-1.9.6-.5,1.4-1.3.6-2.19.3-2.29-.3-.5-.6.7-1.4-.7-.7.4-1.6-1.6-1.1-3.59-.4-.9.3-.6-2-4.19-1.1-.5-2-1.6-1.79-3.19,1-2.89-2.39v-1.2l-.9-2.19,5.09-2.49,4.69-1.7.3,1.3,1.2.7,1.2-.6,3.89,1.1,3.19-1.5.6-1.2,2.1.3-.2-.9,1.4-.7,1.5.8,1.5-1,1.1,1.3,2.49-.8.5,1.6,2.59,1.4,1.9-.4,1.7,1.3,2.59,1.1-1,2.89-1.1,1.3.7,1.1h0Z"/>
        <path id="BG" class="cls-2" d="M576.69,307.64l.2,3.69-.9,1.8-2-.6-2.19.5-1,2-1.2,1.2v2.59l.4,4.19-1.6.7-2.89,3.69,2.99,1.8,1.7,2.19,2.39,2.49.5,1.2-1.7-.2-.9.4h-1.79l-1.5.6-3.39-2.49-3.49.3-1.5,1.1-3.39.4-1,2.19-1.9.3-.3,1.4-1.6-.5-1.6,1.1.7,1,.9,2.69-.2.8-2.49,1.2-1.79-.3-3.19.4-3.39.9-1.7-1.1-3.69-1.2-.9.6-2.39-1.4-1.2-1.7-1.6.5-4.19-.1-.2.9-1.89.2-2.99,1.1-2.59-.2-2.39.2-1,1-2.99-.2v-4.19l.5-1.7-.9-1-1.7-3.29-3.39-1.79-3.29-3.19,1-.3,1.1-1.7-1.4-2.89v-3.29l1.1-.6,1.8-.1,1.1-1.6,1.6-1.7.3-1.4-1.6-1-1.3-1.6-2.89-1.5-2.39-3.89-.6-2.4.4-2.29,2.1-1,.2-1.89.9-.7,4.29,2.49-1.8,2,.9,1.8,3.69-.6,3.89.3,5.29,1,3.49.4,2.49-.5,9.38,1.7,4.19.2,2.29-.6,1.6-.9,1.2-1.6,3.29-2.09,3.19-1.2,4.39-.9,2.89-.4,4.49,2.29,3.19.4.9.6,1.7-.5,2.49,2.59,2.19.7,2.59.5h2Z"/>
        <path id="BA" class="cls-2" d="M455.59,290.29l2.79-.7,1.5.8-.5,2.49-1.6,2.69-.1,2.59.5.8,2.39,1.2,3.29,2.89-.3.8-3.09-.1-.5.8,3.19,3.69-.2,2.19-2.49-.3-.7.8-3.19.5,1.4,2.19-2.29.2-1.99,1.7-.5,1.7.1,1.5-1.7.2-.5.7.6,2.99,1.1,1.6-.1.8-1.1,1-1.7-.7-6.18-3.79-.6-.9-1.6.1-1.1-.6.3-1.59-2.99-2.49-1.5-1.59-.4-2.19-2.39-1.1-4.99-4.09-1.7-2-2.79-2.29-2.29-2.39-1.3-3.99-3.39-3.19-1.9-1.3-.1-1.4.3-4.99,1.2-.6,1.8.4,1.7,1.79,1.8,1,2.69-3.19,3.19.3,1.5-1.2,2.69,1.6,2.49.1,2.79.7,1.7-.6,1.6,1.3,2.19-1,1.8.3,1.8-.2,2.59.7,2.19.2,1.1.8,1.3,2.19,2.19.2Z"/>
        <path id="BY" class="cls-2" d="M541.67,120.02l1.79,1.3,1.2-.4,1.89-.1,3.09,2.2,1.6-.9,1.5-.3,3.59,1.2.2,2.29,1.7,1.5,2.09-1.3,2.69-1.1h3.39l2.69.9,2.39,1.8,3.49,1.4.4,2.49-.6,1.8,2.1,2.1.5,1.3-1.3,2v2l4.09,1.99.5.5-.5,1.79,1.4.6,1.8,2.39,1.5,1.4,4.89,2.09.7.8-.4,2.79,5.29.5,3.19,1.3v1.1l.7,1.1,2.79,1.4.6,1.7-2.59,1-.3.9-2.99,1.8-3.49-.2-2.39-1.5-2.89.1-1.4,2.69,3.89,3.29.6,1-.2,1.5,1,1.5.5,3.29,1.6,1.4,1.3,1.8-4.99-.1-1.4.8-1.7-.4-1.1.5-2.19,2.29-.8,1.2-1,3.29,1.8,3.59-.8,1.4-2.69-.9-.5-1.2-1.99-1.1-7.08.6-2.29.8-.6-.5-2.49-2.99-3.79,1.6-.6,1.1-1-.3-.8-1.3-5.09-1-1.9.7-1.9-.5-1.2,1.7-.8-1.4-1.1-.4-2.99.1-1-.3-1.8-2.09h-2.29l-6.08-.9-6.48-1.5-7.78-.4-2.39.1-2.29.5-5.88.5-.8,1.4-1.6,1.6-1.9,1.2-1.1-.5-1.9-.3-1.1.5.1,1.4-1-1.6-.1-1.3.8-1.5-.4-1.1.2-2.39-.8-1-1.79-1-3.29-1.3v-1.2l2-2.69.8-.5,3.99-1.7.6-1.6-.9-3.89-1.7-3.59-2.89-4.89-2.09-5.09,2.89.4,1.6-.3,3.69-.3,1.6.9,3.29-1.3,1.8.1.8-2.59,2,.2,1.4-1.2,2.1-.5,1-.7,1.7,2.29,1.99-.2v-1l-.9-1.1-1.9-.5.5-1.99,1-1.5-.4-2.29,1.1-2.99,2.59-.6.8-.6,1-2,3.59.1.4-1.1,1.3-1-3.89-1,.7-3.09v-1.8l2.59-.6,1.2-1.5,1.1-.3,2.99.4,3.09.1.4-1.7,2.49-2.39,1.4-.8,1.3-.2h0Z"/>
        <path id="CH" class="cls-2" d="M331.81,247.29l.8,1.1,2.59,1.3h1.2l.9.7-1,2.99-.5,1.5.1,1.7,1.2.1,3.29.8.4,1,1.5.8,2.29.4,1.99-1.9.8.3.5,1.5-.5,3.09.5,1.79-1.89-.2-1-.9-1.3.3-.6,1.79,1.5,3.49-1.2.3-1.4-1.89-.7-.1-2.89,1.1-1.99-.8-.8-2.1-2,.1v2.89l-.5,1.1-2.19,2.59-.2,1,.7,1.7-1.2.7-.9-1.4-1.3-1.2.4-1.2-2.19-.6-2.39-1.99-.2-2.49-1-.6-3.39,2.89.6,1.5-1.6,2.19-2.39,1.4-3.09-.8-2.59,1-2.39.5-1.4-.7-.9-1.4-2.29-2.29.5-1.69-.8-2.2-2.19-.3-1.9.1-2.29,1.5.5,1.3-2.29,1.59-1.4-.1v-1l1.5-1,.3-1.5-.8-.7,1.1-2.89,2.99-2.19.5-2.89,2.09-.9,3.79-3.99.6-.9-1.3-1.1,1.8-1.4h1.1l.8.8,2.69-.3.8-1.4,1.5-.7,1,.3,2.79.1,3.29-.6,2.59.2-.2-1.5,1.3-1.2h1.3l1.4,1,.8-.2,1.1.9,3.69-.2h0Z"/>
        <path id="CZ" class="cls-2" d="M396.44,198.82l2.1-.4-.1-1.89,3.29.8.3,1.1,1,1.1,4.59,1.1,2.69,1.1.8.9,3.19-.7,1.79,1.2-.7,1.1-1.6,1.2,1.6.9,1.99,1.8,1.5,1.9,1,.4,3.49-2.49-1.7-2.39h1.3l2.19.6,3.29,1.9,3.59-.7v1.6l-1.4.5,2.69,2.29,1,.6,1.8-1,3.49,1.79.5-.2,2.69.8.5,1.8,2.79,2.19.5,1.6-2.79.3-2,1.5-.6.8-2.3,1.2-.7,2.99-1.6.8-2.09,1.9-1.5.7-1.7.2-3.59-.5-1.4,1.2-1.1,2.79-1-1.6-5.09-1.5-1.2.9-3.79-.2-2.99-1.7-1.5.1-4.79-1.7-1.4.4-1.6-.8-1.2.2-.3,3.19h-1.2l-1.3,1.6-.1,1.1-2.49-.4-1.4.7-3.89-.4-.8-1.3-2.19-1.2-.6-.7-2.89-2.19h-1.3l-1.3-1.6-2.49-1.5-2.89-2.59h-1.3l-2.29-1.99-1.8-2.69-1.4-1.5,1.2-1.7-.6-1.6-2.29-1.3-2.49-3.39.5-.7,1.89,2,1.9-2.59,1.1-.6,2.59-.6,2.09.4.8-1.3,1.99-.3.6-1,1.6-.7,1.1.1.6-1.2,4.39-1,3.49-1.5,1.89-.6-1.5-1.5.8-.6,2.19.4,1.5,1.5v.9l1.4.6.9-.7h0Z"/>
        <path id="DE" class="cls-1" d="M385.38,152.43l-4.69-2.59.1,1,1.1,1,.19,1.69,3.4.1-.1-1.2ZM350.07,144.25l-1.7-.39-.8.99,1.4.7h1.79l-.69-1.3ZM377.3,144.85l.5-1.69-1.7-.6-.9-1.2-1.99.9-.6,1.4-.1,2.19.5,1.1,2.09,1.09,1.3-1.29h1.3l1.29-.7-1.69-1.2ZM396.85,189.74l-2.2-.9v-1.59l-1.89-3.1.79-1.09.7-2.6-.79-1.89-2-2.3.6-2.59-1.4-1.7-3.29-2.09-1.6-1.4.7-1.59,1.9-1.8.3-2.69-1.8-4.09-.7-2.6-2.79-.49-1.89-1.3-.8-2.49-1.3-2-3.19.2-3.69-2.09-1.5-1.9-5.28-.9-5.09,4.49-3.59.3-1.1.5-3.29,2.49-3.59-.89-2.1.2-1.39-1.2,2.19-1.6.6-1.49-.7-1.4-3.19.9-4.49-1.8-1.69.4-.8-1.2-3.19.3,1.69-1.59-.1-1.4-1.59-1.59-1.8-.7-1.5-.4-3.09.7-5.18-1.3-2.7-.1.2,1.6,3.39,3.79v.99l-3.39,1.1v1.5l1.6-.3,1.49.8.2,3.89.9,1.09,2.79.5-.1.6-3.59.3-3.29-.6-.9,1.4-.2,1.59.5,1.7-1.09.1-1.4-.8-.9,2.39-1.59-.29.59-1.2-1.89-2.2-4.49-.1-3.99.3-.9.4-1.09,1.4-.5,2.69,1.69,1.4.1,4.29-.7,1.69-1.09,3.79-3.09-.1h-.01l-.59,1.6.7,1,2.59.3.8.99-.6,2.6-2.6,1.59-.3.9h.01l.99.9-.7,1-4.48,1.29-2.3-.79-1.79.69-.7,1.1,3.09,4.09v1.2l-1.3,2.79.7,1.2-2.19,1.59-.5.8,1.89,1.2-.59,2.39,2.99,2.3-.4,1.49,1.69.7.4,1.99-2.29,1.3-.6,1.7.3,2.19,1.5,1.6,2.79,1.1v1.39l-.9.9-.6,2.99,1.4.1,3.49,4.29,1.8-.7,1.39.4.3.9,2.1.1,2.99-.6,1.99,1.4,4.79.79,1.6.6.1,1.3-3.49,3.79-1.4,5.49-1,1.79-.3,1.5.2,2.39-.6,2v1.49l1.1,1.3,1,.3,2.79.1,3.29-.6,2.6.2-.2-1.5,1.29-1.19h1.3l1.4.99.79-.2,1.1.9,3.69-.2-1-1.59,5.09,2.29,2.2,1.2.69-.5,3.5,1.59.89,1.4,1.2.3-.1,1.3,1.6-.5.99-1.6.2-1.89,2.8-.1,2.69.4,1.4,1.89,3.79-.5,1.09-.89,3.89-1.5,5.69-.5.1-1.4,1.99.3,1.5.8,2.49-.5,1.1.5.2,1.1,1.2.89,1.69.4.3-1.49-.3-1.9-1.69-.3.59-1.29-.09-1.3-2.5-2.79.6-1.3,3.09-1.79,2.89-.8,1-1,.7-2.89,2.29.9,1.3-.9.2-2.8-.6-.69-2.89-2.2h-1.3l-1.29-1.59-2.5-1.5-2.89-2.59h-1.3l-2.29-2-1.8-2.69-1.39-1.5,1.19-1.69-.59-1.6-2.3-1.3-2.49-3.39.5-.7,1.89,2,1.9-2.59,1.09-.6,2.6-.6,2.09.4.8-1.3,2-.3.59-1,1.6-.69,1.1.1.6-1.2,4.38-1,3.5-1.49,1.89-.6-1.5-1.5.8-.6,2.2.4,1.49,1.5v.89l1.4.6.9-.69,1.59-3.6.4-2.29-1.59-3.19Z"/>
        <path id="DK" class="cls-2" d="M355.65,139.77l-2.39-.3-2.1-1-1.29-.9-2.3.2-.1,2.49,5.09,2.1,3.49-.7-.4-1.89ZM363.13,136.47l-1.19-.2-1.6,1,.3,1.2,1.89-1,2.3-.1-1.7-.9ZM335.3,137.07l-2.69-1.09.6,2.29,1.69.5,1.2-.2-.8-1.5ZM345.18,136.18l-2.49,2.89,1.39,1.49,1.8-4.58-.7.2ZM389.86,132.48l-.49.9-.1,2,2.39,1,2.39.19.3-1.79-4.49-2.3ZM342.09,127.9l-1.5.79-2.59-.79-4.79,1.39.1,2.3,1.69,2.89,5.39,1.7h2.1l1.79-1.2.1-2.79-2.29-4.29ZM364.53,126.9l-.9.9.7.89,1-.6-.8-1.19ZM340.59,122.31v2.99h.9l.6-1.39-1.5-1.6ZM363.43,127.5l.7-.7-.1-1.5-.7-1.99.4-2.1-2.99-.89-1.1.1-3.89,2.19.9,1.1-1.1,2.89-1.59-.5-.1-2.59-.8-.7-1.8.2v.9l-1.49,1.89-3.09.2-.4,1.4,1.29.6,1,1.99-.1,2.1,1.5,1.79,2.19-.1,2,.4,1.29,3.09.1.9,1.5,2.09,2.19-.59v-5.59l2.6-.7.99-.7-.5-1.49-1.99-1.2,1.1-1.79,1.99-.7ZM343.48,114.53h-4.09l-2.49-1.5-.2-5.58,1.4-2.5.89-.99v-3l-1.19-1.69.79-2.49-2.99,1.69-3.29.5-1.5,1.5-2.79,3.59-2.79,1.29-3.89-.1-1.6.6h-2.19l-2,1.9-1.59,1.89-.1,1.4,2.39,1.4,1.5-.7,1.89-.2,1-2.4,1.3-1.89,1.29-.4,1.6.5-.3,4.49-1.6-1.3-1.99.8-1.6,1.59-.59,1.9-1.5-.9-3.09-.8-1.3.1-.1,6.89,1,2.29-.5,5.59,2.49,1.39,3.2,1.3.89,3.89-1.09.3.79,1.39.5,2.1,2.7.1,5.18,1.3,3.09-.7,1.5.4-1.3-2.9-2.29-.3.6-1.09,1.49-1.3.2-.9-1.09-3.39,3.39-3.09,1.29-.8-1.39-1.19,1.2-.5,1.99.1,1.2-5.09,1.09-.9,1.4,1.1h.9l2.59-1.4.7-2.19-1-1.1Z"/>
        <path id="EE" class="cls-2" d="M476.74,84.11l-3.89-.2-3.19.6-.5.99-1.99.5-1-.5-1.5.2,1.6,1.6-.9,1.8,1.9.69,1.49,1.4-1.59,1.8.3.89,1.59-.5.9-2.79,1-.9,1.39-.2,2.6.1.3-.49,3.69-2.5,1.79-.7-3.99-1.79ZM480.73,83.51l-1.89-.5-1,1,2.39,1.1.9-.2-.4-1.4ZM475.25,78.52l-2.1-.3-.4-.89-1.29-.1-1.2,1.59-4.49.4,1.3.7,2.89.5,1.89,2.49,1.3-.3.9-1.59.9.59.79-.69.4-1.4-.89-1ZM530.7,92.69l-2.39-2.9-.8-1.29-2.59-2.2-1.4-2.79-2.59-2.29-.1-1.1,1.3-1.1,1.99-.5,2.5-.2,1.69.3.8-1,.9-3.19,1.19-.4,1-1.39-1.49-1.2-1.2,1-6.29-.5h-3.99l-1.39-.3-2.79-1.2h-1.8l-7.58-1.19h-3.19l-.4,1.69-6.29-.1-3.09,1-2.29-.2-2,1.3-.9,1.29-3.29.2-2.99,1.2.7,2.79-.7,1.1,1.5,1.99v1.8l.79,1.2,1.6,1.09,1.2,2.1,4.09,1.3,1.29-.3.9-1.3,2.3.4-.1,3.59-1,3.39,8.38-2.79,1.49,1,1.1-.7,5.59,2.49,2.29.5.6.7,3.49,2.69,2.79,1.1,3.99-1.2,3.39,1,1.9.2.2-2,1.2-1.99,2.29-.6-1.8-2.49Z"/>
        <path id="FI" class="cls-2" d="M463.88,58.67l-.9,1.2,2.29,1.79.6-2.79-1.99-.2ZM460.78,57.78l-.89.79,2.09.6-1.2-1.39ZM453.7,55.48l.3,1.7,1.5-.7-1.8-1ZM557.84,22.07l-2.2-1.6-2.09-1.9-2.6-1.29-6.58-2.89-4.49-2.6-.7-.8,2-.79,2.39-3-.2-1.69-.7-1.3-4.48-1.79-.75-.92h-62.8l-.79.62-.8,1.59-2.49,1.9-.3,1.29-1.1.11-2.29,1.89-2.3,1.1-2.39,1.89-2.29.5.1,1-1.2,1.2-1.5.69,1.1,1.8-1.9,1-2.39.4-1-.4-2.69.49.5,1.3-.9,1.1v1.2l-2.39,2.19-.6,2.39,1.09,2.9,1.9,1.09.6,1.6-.5,3.29,1.6,1.1,2.19,2.99.9,1.6-1.1.6.6,1.99.1,3.39-.9,1.6v1.29l1.7,5.29,2.09.9,2-.9.7,1.3.89.1,3.79,1.39,3.59.6-.79,2.3.39,2.39,2,.1,1.5-.8.29-1.49.7-.4,1.2,1.59,2.39,1.1-1.49,2.99,1.79-.4,2.7-1.99,2.89.2,6.68-1.1,1.2.3,1.5-1.3,5.88-1.09,1.1-.8,2.09-.2,2-1,.79.9,3.3-1.5-.3-1.49,1.99.99,1.9-.2.7-.59.99.69,2-.59,2.49-.2,1.2-.8,1.79-.2,2.6,1.1,3.49-1,5.58-5.19,2.5-1.49.7-.8,4.88-3.29,2.1-2.2,1.89-1.49,5.29-5.89,2.29-2.29,3.4-2.8,2.19-2.19.7-1.2,1.59-4.49-.49-.99Z"/>
        <path id="GB" class="cls-1" d="M206.23,200.71l-1.99-.6-2.5,1.1v.5l2.5,1.19,1.29-.19,1.6-1.3-.9-.7ZM170.72,161.81l-1.29-1.4h-1.8l-1.2.5.1,1.9.9,1.19,1.2.6,3.39-1.89-1.3-.9ZM154.37,144.65l2.09-.3-1.2-2.49-3.49-.3,2-1.1v-.89l-1.7-1.4-1.3-1.7-.49-1.69-1.1-1.1-3.89-.3-2.7.7-2.79.1-1.89,2-1.3-.6-1.89.89-1,2.3-1.2,1.59-2.19.8-1.6-.1-.2.8,1,1.4-2.89.9-1,1.39,2.69,2,.2.99,2.1.4.79.7,2.9.3,2.39-1.8-.5-.89,1.9-1.6,1.29.5,1.8,2.69,1.39.5-.09,1.5h2.89l2.09-.4,2.3.5.99-.5,1.4-2.2,2.59-.59.6-1.4-1.09-.2.1-1.4ZM160.65,127.1l-1.8-.7-.89,1.4.59,1.99,2.6.5.1-1.89-.6-1.3ZM149.68,123.21l-2.2,1.1-1.49.29-.2,1.9,1.39-1,.8,2.4,2.4-1.3-.7-3.39ZM151.87,121.51l-1.59,2.2,1.09,1.19,2.1-2.79.1-1.6-1.7,1ZM152.07,114.33l-1.69-1.69-2.1.49-.3.9,1.9.9-.6,2.99,4.59-.8.3-2.19-2.1-.6ZM137.61,102.06l-1.6-.2-.2,2.3.4,1.39,1.5.2-.1-3.69ZM155.26,103.56l-1.99.1-2.89-.8.09-2.79-.19-1.1-.9-1-1.5.7-2.79.6-.3,1.2-1.4.59.9,1.1,2.69.5,1.2,1.9,1.9.29,1.39-.29.2,2.19.7.1,3.29-2.69-.4-.6ZM138.61,97.47l-3.4.7-.2.5,2.2,1h1.5l1.09-1.3-1.19-.9ZM150.37,87.6l-.39-2-6.29,3.2.7,1.19-1.89.3-1.4-.7-.8.7.2,2.6,2.09.99-2.59,1.7,1.4,1,3.19-2.4,2.99-1.59.2-1.7,1-.7,1.6-2.59h-.01ZM232.86,184.85l2.1-.9.5-1.69,2.79-1.9,2.2-5.78-.4-3.1-.7-1.09-3.29-2.1-3.79-.99-4.19-.3-1.7.2-1.99,2.09-1.2.2-2.79-1.4,2.99-2.69.6-1.1-1-2.69-1.6-1.99-4.98-3.3.3-.69,2.29,1.39,1.3.1-.3-1.59-2.1-2.9-.4-1.19,1.4-1.5-3.39-2.39-3.39-3.3-1.1-.59-4.49-1.6-1.59-1.8-1.5-3.79-2.1-6.88-.49-1.1-2-1.49-3.59-3.39-5.19-1.9-2.69.1-2.39,1-3.59-1.1,2.09-.7,2.29-1.69,2.4-.1,1.4-1.8-4.49-1.89,3.09-.5,2.09-1.1,2-2.49,1.89-2,2-3.49.8-2.29,2.79-3.39-1-1.7-2.29-1.3-1.9.3-6.88-.2-2.59.3-3.59-.49-5.29,1.49-2.99.4.6-1.5,2.19-1.59-.2-.8-1.4-.1.5-1.6,2.5-1.29,4.19-2.8,2.19-1.19,1.3-1.6v-1.2l.59-1.69-2.29-.2-2.19.4-4.49.6-3.69.3-2.8.59-.59-.79-2.6.9-1-.9-1.29-.2-1.6.89-.3,2,.8,1.8-3.69.29-.7,2.9,2.3,1.99-1.9.4-2.99-.1-1.6,3.09.7,1.5-1.69,1.89.2.9,1.59.6,1,1.5-.4,1.89-1.7,2.1-1.49.89,1.49.7-1.69,1.1-1.8.2,1,2.29.8.7,2.39.4,1-.5,4.09-2.69-2.19,3.49-1.7,3.79-1,2.89-.3,3.59.6.3-1.4,2.5-1.09,3.89,1.39.5,1.1-.9,2.1-5.69-.1-3.29,1.49-1.4.6.4-.3,2,1.8-.9,2.89-.9,1.9,1.2-1.5.4-.8,1-.3,2.59,1.9,1.49.5,1.4-.6,1.2-2.9,3.99-1.19,2.39h-1.3l.3,1.9,2.59,2.49,1.1-2.29,3.49,1.29,2.5-1.09,1.09-.1.8.9h2.09l2-1.3,2.69-1.2,1.4-.2,1.89.8-2.29,1.99-1.6,3.1.3,1.39,2.8,3.59,1.69,1.5,2.1-.6,1.69.5-.7,2.59-1.49.8-.1,2,1.19.59-1.59,2.2-.1,2.39-1.2.4.8,2.1-2.69-1.3-3.69.7-1.9-.1-3.59,1.3-2.59,1.69-1,1.4-2.79,1.79.69,1.1,2.7-1.2,2.99-.3-.3,1.5.9,1.7-.5,1.39.3,2-1.2,2.29-2.79,1.9-2.19.69-3.79,1.7-2.5.6-1.1.7-.29,1.39.89,2.3,2.6,1.2,3.59-1.7h2.59l2.4,1.7.69.89,2.1-.4,2.09.8,2.3,1.9,3.19.4,3.79-2.3,4.69-1-3.59,3-1.9,2.39-1.1.7-2.89.1-2.79-.5h-2.8l-4.09.6-1.39,2.49-2.69.7-.8,3.09-4.59,3.79-2.19,2.3-2.5,1.89-2.79.7-1,1,.3,1.29,2.29-.79,1.4.3,1.1.89,1.29-.2.9-1.49,3.89-2.4,2.7-.69,2.49-.3,1.5-.5,4.48,2.49,1.4-.2,1.1-1.2,1.29-3.49,1-1.29,4.89-1.2,2.59.1,2.7,1.4,1.39.2,1-.5,3.79.5.9-.4-.9-1.5,2,.2,4.18-.5,2.8-1.69,1.79.19,4.19,1.2,3.99-.6,2.89-.1,4.89.8,5.69-1.89,1.09-.7,2.2.1,1-1.8,3.79-1.69.4-.4.19-2.69-1.89-.2-4.29.2-2.49-.4-1.1-2,2.49-.2,1.1-.6v-1.69l-1.69-.6,2.39-1.2,1.69.3ZM183.39,79.82l-1.49.3,1.29,1.39,1.3-.1-1.1-1.59ZM185.79,78.02l.1-1.09-1.2-.5-1.7.1-.4,2.09,1.9,1,1.99-.3,1.4.7.6-1.4-2.69-.6ZM186.78,73.44l-.4.79,1.7.6.4,1.2,1-.3-2.7-2.29ZM207.13,58.07l-1.6-1.79-1.19-.8-1.5,1.6,1.1.2.8,1.99-1.6,1.4.4.9,1.7-.3.49,1.09-.89,2.9.79.4,1-1.7.2-1.6,1.3-3.79-1-.5ZM208.33,54.78l-1.3.6,1.4,1.3-.1-1.9Z"/>
        <path id="GR" class="cls-2" d="M560.63,440.4h-1.8l-1.69.6-.7.7-1.2-.2-.1-2.8-.4-.4-3.29.7-2.29-.5-2.6-.2-1.39-.99-3.69-.2-3.49.9-1.7.1-2.19-3.7-1.7,1h-2.29l-1.9-1.1-.4,1.4-1.39-.3-.2,1.9.4,1.79,1.09,1,3.09-.2,1.5.4,6.19,1,3.29,1.09.69,2.2.7.2,5.29-.4,8.08-1,4.39.1.9-.4.39-3.49-1.59.8ZM572.9,433.92l-1.1.49,1.6,2.1.69-.2-1.19-2.39ZM517.24,422.15l-.5.99.7,2.2,1.4-.2.49-.9-2.09-2.09ZM585.76,422.34l-.89-.89-3.19,1.29-2.3,2.7.7,1.59-.4,1.8,1.7.4,1.39-1.9,1.6-.2-.4-.99.9-1.3.89-2.5ZM561.93,418.36l-1.9,1.19.9.6,1.49-1.2-.49-.59ZM572.4,413.97l-2.49.99-1.3,1.1v.7l1-.7,1.49-.1,2.5-1.39-1.2-.6ZM545.77,410.18l-1.1.59-.4,1.2,1.3.7.9-1.3-.7-1.19ZM550.35,410.08l-.89-.7-1.9,1.99,1.4,2.2,1.1-.6.39-1.1-.1-1.79ZM556.04,402.6l-.6,1.59,2.2-.6v-1.09l-1.6.1ZM533.2,401.9l-.4,1.19,1,.4.5-1.09-1.1-.5ZM565.32,399.8l-2.4.5,1.2,1.2,1.7.9,1.59-.9.7-1-2.79-.7ZM488.81,399.9l-1.69-.7-.9-1.19-.9,1.09,1.2,1.8,1.59,1.2,1.1-1-.4-1.2ZM541.08,398.31l-1.3-.1-.9-1.2-.89,1.4,2.39,2.09,1.4.1-.7-2.29ZM485.82,393.02l-.9-.3-.3-1.8-1.19.8-1.4-.1-.6,1.8,1.3-.2,1.1,1.99.99-.2,2.1.8.2-1.19-1.3-1.6ZM555.54,389.53l-.6-1.2-1.29-.9-2.1.5.1,1,2.1,2.39-1.4,1.3,1.8,1.7,1.09-.9.7-1.3-.4-2.59ZM485.42,384.44l-1.1-.3-.8,2.4.4.89,1.3-.1.4-.39-.2-2.5ZM535.69,394.62l-2.69-.3-1.1-.9-1.49-3.79.2-.6-1.7-2.59-2.79-.3-5.49-2.5-.9-1.69-1.39-1.2-2.1.5-1.89,1.3.6.69,2.99,1.1,1.49,1.1,2,1.89,1.49.9.6,1.7,1.5.7,3.59.2,2.19,2.89.4,1.29,2.1,1.6,1.89.7.9-.8-.4-1.89ZM559.33,378.56l-1.89-1.5.1-.9-.9-.9-2.3.2v.6l-1.69.8-1.5-.1-.7,1.4.9.9,2.2.69,1.19-1.49.9.5-1.59,1.29.79.8,3.99.8,1.2-2.1-.7-.99ZM474.85,373.97l-.9-2.4-.8-.69,1.1-1.2-1.4-1.2-1.59.4-.7,1.1,2.19,2.19,1.2,1.9,1.2.8,1.29-.3-1.59-.6ZM543.17,365.49l-.99.9-.8-.8-2.2.1.3,2.29,3.79.7.1-1.29.7-1.4-.9-.5ZM544.77,357.71l-1.4.5,1.7,1.29,1.4-.39-1.7-1.4ZM533.6,353.42l-1.3-.1-1.1,2.3,1.8,1.09,1.59-.6v-1.39l-.99-1.3ZM556.64,343.95l-.9-3.1-2.29-1.49-1.2-.3-1.6-.5-1.59,1.1.7.99.89,2.7-.2.79-2.49,1.2-1.79-.3-3.2.4-3.39.9-1.69-1.1-3.69-1.2-.9.6-2.4-1.39-1.19-1.7-1.6.5-4.19-.1-.2.9-1.89.2-2.99,1.09-2.6-.19-2.39.19-1,1-2.99-.2-2,.3-.2,2.1-2.89.99-3.29-.59-2.99.39-.8.3-1.7,2.5-2.39,1.29-2.29-.6-.9.6-4.59.3v1.1l1.1,1.8-.8,2.59-1.7.8-1.19,3.09-.3,1.99-.6.5-1.9.3-1.69,1.3,1,2.19-.9.7-.3,1.5-.7.7-2.69-.9,2.59,2.59,1.7,3.39,2.19,1.1,1.5,1.7,2.79,2.19,1.79-.5,2.5.2.6,1.6-.9.6-2.4-.9-1.49.2.2,1.89,1.2.5,1.69,1.9,1.9,4.19.99.69,2.6-.99,1.09,1.29,4.19-.69,2.1-.7,3.39.89h1.2l1.19-1.29,2.2,1.49,2.29.8,2.4,1.4.79-.2,2,.6-.2,1.59h-2.1l-.79.4.5,1.4-1.6-.3-1.2-1.1-2.09-.99-4.19-1.2-3.89-2.1-1.6-.1-1.99,2.4-1.4.2-1.89-.5-1,2.59-2,1.7v.99l2,1.3.7,1.6,1.19.49,2.1,1.5,1.59,2.5.3,1.19-1.39,1.7.2,1.79,2.29,3.49,2.2,1.9.39-1,.1-2.89,1.5-.6,1.3,1.9.9.4,2.09,2.79.2,2.89,1.59,1.1-.19-1.9,1.29-3.29,2.2-.1.79,1.5,2.2,2.49,1.69,1.2-.1-1.5-.99-1.49.2-2.1-1.3-3.69-2.19-4.29-1.3-1.59-.7-2.4.6-.6,4.29,2.2.2,1.19.79.5,1.1-.69,3-1-2-2.4-1.99-.4-.8-1.49-.1-1.2-1.5-1.3,1.9-1.29,2.89-.5,1-.7.99.4,4.19,3.59,1.3,1.6,1.1-.5-.1-1.7-.6-2.09-.3-2.89-1-2.1-1.69-.8-2-.5-1.69-2.09-2.6-.6-1.69-2.09-1.5-.1-1.59-1.1-3.3-1-2.39-1.39,2.59-.1,1.6-.8.4-1.3-.5-1.2-1.5-2.29,1.9-1.2,2.19,1.2-.3,1.9,1.3.49,1.3-1.09-.7-1.8-2.59-3.19-2.6-2.1-1.3-2.69-3.49-3.69-.4-1.3.6-3.79-.4-1.99,2.2-1.3,1.4,2.79,5.48,2.8.4,1.99,1.1,1.6,2.99,1,.6-.6-2.89-1.7-1.2-2.39.4-.6,3.09.6,2.49,3.19,1.5.8.6-.9-.5-1.4-3.49-2.69,1.2-1.2,1.19.1,3.19,1.2.7-.7-2.49-1.29-2.1-.1-.49-1,.49-1-1.99-2.09.2-1.1h2.29l1.8.4,1.79-1,1.7-1.89,2.19-.4,1.6.99,1.5.2,2.49-1.69,1.2-.4,1.99,1,.9-.2,2.29.89,4.59.6,2.1,1.2.49.7.8-.4,2.5-3.19-.5-4.39,3.39-2.49Z"/>
        <path id="HR" class="cls-2" d="M428.67,319.21l1.19,1.3,1.1-.9-2.29-.4ZM451.61,325.99l-1.7-.7-6.18-3.79-.6-.9-1.6.1-5.78-1.99.5.9,4.28,1.99,3.1.7,4.39,2.49,4.78,3.1-1.19-1.9ZM428.97,316.42l-.5-.6-1.8-.2.5,1.29,1.7.3,5.58.1.8-.1-6.28-.79ZM425.67,313.12l-.3,1.1,2.6.8,1.99-.1.5-1.2-4.79-.6ZM407.72,296.97l-2.79-2.7.29,1.9,3.3,2.69.3-.4-1.1-1.49ZM402.83,290.68l-.8,1.1,1.9.2-1.1-1.3ZM399.04,290.28l.1-1.59-1-.9-.5-2.1-.89.3.8,2-.4,1.19,1.69,4.19.9.1-.7-3.19ZM400.14,284.8l-.5,1.19-1,.7,1,1,1.3.2.99.99,1.5-.29-3.29-3.79ZM459.89,285.59l-.9-1.49-2.99-1-1.2-1,.4-1.99-1.3-.4-.2-1.6-1.59-2.69.69-1.5-2.89.4-1.1,1.4-2.49.9-4.89-.2-3.29-.9-1.3-1.3-2.49-.6-1.3-.69-2.19-2.2-2.69-1.79-.9-1.3-1.7-1.2-2.89-1.19-2.49-.6-.9.79v1.7h-2l-.69,1-4.39,1.69-.4,1.4.9.9.2,2.19-.4,1.1-2.1.6-2.09,1,.99,1.09-.69.7.79,2.3-1.19.4-1.6-.2-1.99-.7-1.3.5-1.5-.7-2.59-2.1-1.2,2.2-.6.3-3.59.1-1.09-.5-1.4,1.29-3.29-.79-.5-.6-.7.5,1.3,3.89.5,1.89,3.09,4.19h1.3l2.99-4.99.3-1.89,1.39-.9,2.1.7,1.1,1.1,2.89,2.19.8,1.7.1,4.09,1.19,1.59,3.89,3.39,1.4.8-3.09,1.2.8,1.29,4.28,3.99,5.79,3.89.7,2.2,1.79.2,3.3-.6,2.69,1.2,3.79,1.09,3.09,2.8,2.59,1.49,3.5,2.8.29-1.6-2.99-2.49-1.49-1.6-.4-2.19-2.4-1.1-4.98-4.09-1.7-2-2.79-2.29-2.3-2.39-1.29-3.99-3.39-3.2-1.9-1.29-.1-1.4.3-4.99,1.2-.59,1.79.4,1.7,1.79,1.79,1,2.7-3.19,3.19.29,1.49-1.19,2.7,1.59,2.49.1,2.79.7,1.7-.6,1.6,1.3,2.19-1,1.8.3,1.79-.2,2.59.7,2.2.2,1.1.8,1.29,2.19,2.2.2.99-1.59-.69-2.6,1.69-.4,2.3-.1Z"/>
        <path id="HU" class="cls-2" d="M488.31,236.02h1.5l1.4,2.29,2.19.8.9,1.1,2.29.4.9.7.7,1.7-2.19,2.29-4.59,1.1-1.9,2.39-1.2,1,.1,1.7-1.4,1.4-.7,2.49-1.4,1.5v1.2l-1.6,2.69.2,1.3-2.09,1.5-1.5,4.69-1.3.9-2.59-.3-2.49,2-1.4-.5-3.19.9-1-.5-2.79-.3-1.1.2-2.89-.4-1,.3-1.5,1.6-2.19,1-1.6-.5-2.1,1.3-2.89.4-1.1,1.4-2.49.9-4.89-.2-3.29-.9-1.3-1.3-2.49-.6-1.3-.7-2.19-2.19-2.69-1.8-.9-1.3-1.7-1.2-2.89-1.2-1.89-2.19-1.4-3.29-2.39-.1,1.8-1.7,2.49-.5.3-1.8-1.1-1.59.5-.7-.4-1.5,2.19-1.2.5-1.4-.5-1.1-2.59-.7,1.3-1.4,2.49.9,3.89-.3-.7-1.99.6-1.9.6-.7,2.09.3,4.19,2.69,1.6.7,4.69.1,6.98-.4.6-1-.5-1.3.4-1,1.4-.7,4.29-.4,2.39-.6,1-1.5.7-.2,3.49,1.4,4.99-2.49,1.6-3.49,1.79-.4,2.69.1,2.49.6,4.59-.7,1.4.9,2.19,2.19.6.2,4.29-1.1h0Z"/>
        <path id="IE" class="cls-1" d="M147.48,150.44l.7,1.1-2.19.4,1.5,5.19.6.9v4.09l.9,3.19.1,2.49-1.3,1.8-.9,2.09-.2,1.79-1.6,2.1-1.5.9,1.6,1.5-2.79.8-2.59-.3-1.3.8-3.89.2-3.69.7-1.7,1.79-2.49.7-1,1-2.29.8-1.7-1.2-1,.2.2,2.1-2.89,1.3-1.8.3-1,.7-5.78,1.4-1.9-.5-3.29.8-1.2-.1,1.6-1.8,1.6-1.3-3.79.6-1.4.5-.6-.6,3.19-1.9-3.29.1-2.99-.4-.4-1,2.89-2.29,2.39-.9-.1-.9-5.09.1.5-1.1,1.7-1,1.8-.1,1.5.6,1.1-.8-.6-1.7,3.89-2.29,2.99-.3,3.29-.7,3.29-.8-2.39-1.2-2.29,1.8-2.59.3-1.9-.5h-2.09l2.69-1.99,1.6-1.7-.8-.7,2-2.29,3.59-1-1.6-1.3-3.89.2-1.4-1.3-2.59.1.4-1.2-3.49-.2.5-1-.6-1.1,2.79-.6-.2-1.99,1.89-.8,2-.4.1-1.1-1.99-.2-2,.4.8-2.09-.8-1-.4-1.7-.9-1,2.79-.2,1.2-.5,4.69.1,1.9,1.3,1.7-1.2,4.79.9.6-2.59,3.79-1.5,1.2-1.99-3.69.4-3.59-1,.7-.8,2.09-.7,1.9-1.6-.3-1.1,1.7-2.69,3.09-.8h2.39l1.6-.9,1.2,1.99-1,1,.6.9,1.2-.8-.5-2.1.9-1.3,1.89-.3.6-.8,3.19,1.7-2.49,1.5-.5.7-1.89.9-1,2.29-1.2,1.6-2.19.8-1.6-.1-.2.8,1,1.4-2.89.9-1,1.4,2.69,2,.2,1,2.09.4.8.7,2.89.3,2.39-1.8-.5-.9,1.89-1.6,1.3.5,1.79,2.69,1.4.5-.1,1.5h2.89l2.09-.4h0Z"/>
        <path id="IT" class="cls-2" d="M418.89,395.91l1.2-2.49-1.1-1.1-2,1.2-.79-.2-2,1.2-3.49-.3-1.4.3-1.19.99-1.7.6-2.79.5-2.99-.4-3.4,1-1.39-.4-2.5-1.59-1.39-.31-.5-.89-2.39-.1-1.4,1.59-1.8.8-2.29-2.29-.9,1.2-1.39.79-1.3,3.69,1.3,2.3,2.29,1.59h2.89l1.5,1,1.69.4,2.6,2.09,2.99,1.4,2.89,1.9,1.4.49h2.99l2.99,2,1.9,2.79,3.69,1.4,1.4-.3,2.89.6-.1-1.5.4-1.69,1.79-1.9-.1-1.3-1.59-1.79.7-.5-1.6-1.4-.3-1.99,1.5-5.09,2.79-4.29ZM344.48,357.91l-1.79-4.99-.7-.9-1-.79.7-1.4-.9-.5-1.2-1.49-2.19-.8-.7-.9-1.5,1.8-1.39.49-2.1,2.5-3.09,1.49-1.3.3-3.39-.6-.1,3.39,2.2,2.4.8,2.29.79.9.1,2.59-.69,1.4v1.9l1.79,1.19v1.7l-1.1.1v2.49l-.6,1.3.4,4.29,2.4,3.79.7.6,2.99.2,1.79-2.1.3-2.99,1.2.6,1.5-.3,2.89,1.2.9-.4.59-2.9.6-11.47-.8-2.79,1.3-2,.6-1.59ZM350.27,321.3l-.4.6-2.9.2,1.1,1.1,2.49-.5-.29-1.4ZM454.8,362.3l-1.8-2.4-3.99-2.99-1.09-1.4-6.39-2.89-2.69-2.09-2.2-1.4-7.18-2.59-7.08-3.19-1.49-1.2v-1.7l2.89-2.09.4-.9-.4-1.2-2.6-.69-6.98.4-2.99-.3-3.99-1.9-4.29-2.89-4.79-4.09-2.29-2.89-1.3-2.5-1.79-5.08-1.6-3.2-1.79-2.79-.7-.7-2.8-1.09-5.08-3.7-2.7-1.09-2.69-2.2-1.2-1.29-1.39-3.2-.9-4.48.3-1.7,1.3.5.89-.7.7-1.89-1.69-1.1-1.5-2.6-.8-.59.4-3.1,1-.69,1.79.4,3.2-1.2,1.69-1.1,1.5-.4,2.09-1.99,3.19.9,2-.9,1.99,2.19-.69.6,1.49-.1-.2-1.3-1.49-1.29-1.9-1.1.4-2-1.3-.19-.3-1,1.6-2.1-2.29-.69-.7-1.4,3.29-2.3.2-.89-2.59-.5-3.99-.3-8.58-1.5-1.1-.5-3.09-3.49v-2.29l-4.69,1.5-3.09-.2-3.39.29-1.4.6-1.2,2.2-1.09.4-2.1-.4-.9-.8-2.99-.3-.5,3.09.5,1.8-1.89-.2-1-.9-1.3.3-.6,1.8,1.5,3.49-1.2.3-1.39-1.9-.7-.1-2.89,1.1-2-.8-.8-2.09-1.99.1v2.89l-.5,1.1-2.2,2.59-.2,1,.7,1.69-1.19.7-.9-1.4-1.3-1.19.4-1.2-2.19-.6-2.4-1.99-.2-2.5-.99-.6-3.4,2.9.6,1.49-1.59,2.2-2.4,1.39-3.09-.79-2.59.99-2.4.5-1.39-.7-2.6,1.7.1,1.6.9.59,1.7,2.6,1.79,1.59-.8,2.5-1.19.3-1.7,1.29-1.89-.2-.8.4,1.5,3.09,3.19,1.4.49,1.7-.79.69-1.4,2.5.7,1.29.1,1.4.9.9,5.08,2.39,3.29-.6.3,2-2.09,2.59.2,1.5,2.99-.5,3.39-1.2.9-.6,2.49-3.39,3.1-3.19,2.59-1.2,2.09.2,3.4,1.3,1.09.1,5.69,3.39,3.99,1.2,1.79,1.1.8,1.49,1.2,5.29,1.69,2.19,1.2,3.49-.1,2.7,2.49.5,1.3,2.09,1.7,1,3.09,3.09.3,1.3,3.99,1.39,1.79,1.2,2.3,3.19,3.49,2.2,1.79,1.99,5.69,5.29,2.79.9,3.19,2.59,2-.7,3.89.9,2.29-.1,1.7,1.7,2.59,3.98.7.7,2.69.2,2,1.3.1,1.5,1.2.09,2.59-.59,1.99,1.69,1.1,2.8-.6,1.09.3,1.1,4.59,2.59,3.69.3,1.4,1,1.1,1.79,1.39,3.8,2.4,4.28,1.39,5.09,1.4,1.3v2.89l-2.79.7-1.1,1.59.5,2-.9,2.79-1.6.7-.6,1.3.1,2.19,1.1,1.5h4.29l1-2.3,1.59-2.49,3.3-2.49.29-1.4-.49-3.39.69-1.4,1.7-1.39,2.49-.7,1.9.3.9-1.3-.9-2.09-.3-3.8-1.6-1.59-2.39-1.5-2.89-.99-1.1-1.7v-1.7l1.5-4.29,1.49-2.99,1.4-1.99,1.3-.9,2.29.4.7,1.4,2.89,1.29,4.99.5,3.09,5.39,1.9,1.29,1.59.5,1.5-4.39-.5-1.79Z"/>
        <path id="LI" class="cls-2" d="M337.1,256.67l-1.2-.1-.1-1.7.5-1.5,1.1,2.49-.3.8h0Z"/>
        <path id="LT" class="cls-2" d="M525.12,127v1.8l-.7,3.09,3.89,1-1.3,1-.4,1.1-3.59-.1-1,2-.8.6-2.59.6-1.1,2.99.4,2.29-1,1.5-.5,1.99,1.9.5.9,1.1v1l-1.99.2-1.7-2.29-1,.7-2.1.5-1.4,1.2-2-.2-.8,2.59-1.8-.1-3.29,1.3-1.6-.9-3.69.3-1.6.3-2.89-.4-.8-2.99-1.1-.9-4.49-2.19-2.29-.7-.6.6-1.3-2v-2.09l1-3.09-1.3-1.3-1.4-.6-.9-1.3-5.68-.1-2.39-.6-3.89-1.4-2-1.2-1.8.2-.6-1.2.2-1.6-1.1-2.39-1.6-2.89-.7-3.79,2.79-1.7,3.59-1.9,4.69-1.4,5.89.5,4.29-.1,1,.9,1.6-.7,4.89.5,2.29.1,3.69.9,4.59-.4,1.69-1.3,2.29-.2,2.39,2.89,6.09,1,.9.4,5.39,3.09,2.59,2.09,1.5.7,2.29.5h0Z"/>
        <path id="LU" class="cls-2" d="M293.21,209.99l.3,2.19,1.5,1.6,2.79,1.1v1.4l-.9.9-.6,2.99-1.3-.7-2,.6h-1.4l-2.1-1.2,1.1-1.7-2-2.39.2-1.7,1.4-2.49,1.3-1.3,1.7.7Z"/>
        <path id="LV" class="cls-2" d="M528.81,99.77l1.9.3.5,1.1,3.19,1.7.7,2.19-.8,1.6-.3,3.09,1.8-.3,1,.6.3,1.2,1.7,2.09,1.3.8,1.9,4.19-.3,1.7-1.3.2-1.4.8-2.49,2.39-.4,1.7-3.09-.1-2.99-.4-1.1.3-1.2,1.5-2.59.6-2.29-.5-1.5-.7-2.59-2.09-5.39-3.09-.9-.4-6.08-1-2.39-2.89-2.29.2-1.7,1.3-4.59.4-3.69-.9-2.29-.1-4.89-.5-1.6.7-1-.9-4.29.1-5.89-.5-4.69,1.4-3.59,1.9-2.79,1.7-.8-2.79-.6-5.49.1-2.79,1.89-1.6.8-1.2.6-4.49,2.49-3.59,2.39-.4,3.09-1,3.49-.9,1.4,1.9,4.89,2.99,1.2,1,2.29,3.39,4.39,1.8,3.09-.6,3.59-2.39,1-1.1v-1.1l-1.2-4.69-1.1-2,.1-1.3,8.38-2.79,1.5,1,1.1-.7,5.59,2.49,2.29.5.6.7,3.49,2.69,2.79,1.1,3.99-1.2,3.39,1,1.9.2h0Z"/>
        <path id="MD" class="cls-2" d="M568.51,281.31l-1.99-2.29.9-.7-1.4-4.99-.1-2.59.9-4.79-.5-2.89-1.4-2.29-1.4-2.89-2.99-2.1-1.3-1.69-2.09-1.8-2.49-3.19-1.5-1.3-2.99-4.89-2.49-2.99-2.49-1.6h-2.1l.2-.6,2.29-1.4.7.2,3.99.1,1.2-1,.8.3,1.6-1,3.49,1,3.59,2.39,2.49.3.6,1.2,5.59.6,1.4,1.9,1.4,1,1.4-.7,1.4,1.4.6,2.29-.6,3.09.6,1.2,2.3,1.2,2.89,2v2.4l.9,1.89,1.99,1.3,2.09.8,1,1.6.2,2.89,2.89,1.7-.6.7-2.89.4-1.2-1.3-1.6.6-2.09-.8-1.9-.2-2.09-1-2.49,1.6.5,2.09,1,1.7-.4,2-2.29,1.7v1.3l-2.49,2.89.5,1.4-.4,1-2,.2-1.1.7h0Z"/>
        <path id="MK" class="cls-2" d="M501.08,329.78l3.29,3.19,3.39,1.79,1.69,3.29.9,1-.5,1.7v4.19l-1.99.3-.2,2.1-2.89,1-3.29-.6-2.99.4-.8.3-1.7,2.49-2.39,1.3-2.29-.6-.9.6-4.59.3-1.3-1.1-1.6.2-1.3-2.39-1.2-1.1-1.2-2.19-.2-1.9-.7-2,.8-.8-.3-2.09.5-2.59,1.69.3.5-.8.2-2.59,3.39-1.5,1-.1,1.6,1.2,1.5-1.89,2.1-.4,2.19-.3,1.99-.9,1.9.3,2.29-.8,1.4.7h0Z"/>
        <path id="ME" class="cls-2" d="M459.78,310.93l.4,1.2,2.59,1.7,1.9,2,2.99,1.6,2.09.5,5.29,2.89.1,1-1.6.4-.2.7-2,.4.9,1.5-.2,1.3-3.39,1.2-.8-2.09-1.1-.3-3.19,5.29-.8.3-2.49-.2,1.6,1.9,1.69.8.3.6v3.09l-2.1-1.2-.9-1.8-3.09-2.89-3.49-1.99.1-1-1.6.1-1.2-1.9,1.1-1,.1-.8-1.1-1.6-.6-2.99.5-.7,1.7-.2-.1-1.5.5-1.7,1.99-1.7,2.29-.2-1.4-2.19,3.19-.5h0Z"/>
        <path id="NO" class="cls-2" d="M275.86,59.57l-1.1-1.99-.7.49.2,2,.7,1.1.99.1-.09-1.7ZM273.46,46.9l-.9.3-.3,1.3h1.8l-.6-1.6ZM305.98,14.88l-2.79.8.99.8,2.3.2.2-1.3-.7-.5ZM312.46,10.6l-2.69.59.3.9,3.29-.5-.9-.99ZM369.62,3.91l-.92-2.41h-36.63l-.56.22-3.19,3.29-2.29,1.3-1.4,2.29-1.6.8-1.29,2.19,2.09.1,1.9,2.5,1.39.1,3-.8,6.08-2.79,1.1-1.1-1.5-1,1.6-.9,2.39-.89,1.7.59-2.9,1.5,1.4.3.8,1-2.59,1.19-1.7.3-2.39,1-.4,1,.99,1.29-1.79.2-2.69-.3-2.7.5-1.09.5-.5-1.1-2.8-2.09-3.89.8-1.69,1.49-.9-.49.6-1.3-3.19-.8-2.8.7-1.89.9v1.19l2.19.3v1.6l-3.29.4-1.09,1.69,5.08,3.99-4.39-1.69-1.19-1.3-2.6-.3-3.09.2-1.89,1.1-4.09.9-2.3,2.29.1,1.3,4.89-.7,1.79.5,6.79-.8-5.29,1.4-.4,1.79-2.29-.8-5.89-.5-4.19.4-2.39,2.3.2.5,3.49-.5,1.3.5-3.99.79-1.3.1-1.99-.99-2,.5-1.89.99-1.9,2.3-1.2-.6-1.09.4-.4,1.89.7,1,1.19.3,2.2-.1,7.18,1.3h2.89l.8.59-4.89.3-5.98-1.49-3.79.1-1.5-.2-.7,1.29.2,1.4,1.9,1.3,1.89,2.29-2.79.3.3,2.59.9.9,2.49,1.2,1.4.1,2.09-.7,4.69-.3,3.39.5,1.1-.3.5-1.3,1.29.6,3.19.6,3.6-.3-.1-1.39,2.99,1.49-5.39,1.2-.7.5-2.19-1.2-1.9.1-1.99.7-1.4.1-3.39-.6-5.19.9-2.39.2-2.09-.4-.9.5.1,2.49.5,2.19,2.19,2-1.1,1.8.6,1.89,1.2,1.5,1.4.7h2.69l-1.8,1.19-3.19-.2.3,1.6-1.1,1.99v2.4l1.4-.3,2.79-1.9.6-1.19,1.5-1.5,1.99-.9.2-1.1,2.7-2.79,1.99-1.1,4.99-1.09-1.5,1.89-1.6-.6-1.79.8-2.2,1.7-.29,1.49-1.2,1.4-2.79,2.39,1.19,1,4.09-.5-2.39,1.2-1.3.2-.99,1-3.4-.7-1.79,1-1.2,2.69-.5,3.29.5.9h2.1l1.09-.6,1.1-1.2,3.09-.89,3.39-2,.4.7-2.59,2.09.2,1.6-.8,1.79,2.4,1.6.09,1.2-2.79-1.3-2.69-.8-.6.5-.3,3.59.8,1.6,1.4,1.39,3.09,1.3.89.8,3.79,1.6,3.1.1-.7,2.39,1.59.4.8-1.2,1.2.1v1.1l1.1.7,2.09-.4,3.09.4,4.59-.9,1.8-.9h1.39l1.6-1.2,2.29-1.09,4.29-3.89,2.7-1.5.59-.9,1.7-.99-1-.7,3.39-1.3.8-1,1.1-.2.6,1,1.29-.2,1.3-.8,1.1.2,2.49-3.89v-2.29l-.6-1.1,2.5-1.2.4,3.1,2.29,2.89,5.98,1.2.4.99,1,1.8,1.9-.2.69-1.4.6-3.89-1.59-4.39,1.49-1.49.9-2.4,2.6-.69,1.29-.8,1.9-2,.1-2.79.59-2.09-.49-1.4-3.1-4.89-.3-1.59h.01l1.79-.6h2.39l1.3-2.5.4-1.89-3.39-2.7-1.2-.39-3.79-2.1.9-6.38v-1.6l-2.49-4.39.09-1.79-.59-2.8,1.09-1.09-2.69-4.09,2-2.79-.5-1.5,1.19-1,3.49-3.79h.01l3.29-1.49,3.29-.4,7.08.89,1.7-2.19-.1-1.2Z"/>
        <path id="PL" class="cls-2" d="M484.12,146.45l.6-.6,2.29.7,4.49,2.19,1.1.9.8,2.99,2.09,5.09,2.89,4.89,1.7,3.59.9,3.89-.6,1.6-3.99,1.7-.8.5-2,2.69v1.2l3.29,1.3,1.79,1,.8,1-.2,2.39.4,1.1-.8,1.5.1,1.3,1,1.6,1.2,1.8v1.3l2.69,2.79,1.9,2.79,1.4,1-1.2,1.3,1.8,2.59.1,1.3-1.2,1.8-2.99.5-4.79,4.59-2.39,2.69-3.39,4.39-.6,1,1.5,3.79-.1,1.8,1.9,1.4-.4.9-3.29-.7-.9-.2-5.69-1.9-.8-1.4-1-.7-3.09-1-3.59-.3-3.19.2-1.4,1.5-1.8-.1-2.39-1-2.99.1-2.29,1-1.1,2.09-1.7-.6-1.4.4-.6-2.69-1.4-.4-2.99-2.99-2.19,1.3-1,1.7h-2.19l-.5-1.5-1.3-.2-.5-1.6-2.79-2.19-.5-1.8-2.69-.8-.5.2-3.49-1.79-1.8,1-1-.6-2.69-2.29,1.4-.5v-1.6l-3.59.7-3.29-1.9-2.19-.6h-1.3l1.7,2.39-3.49,2.49-1-.4-1.5-1.9-1.99-1.8-1.6-.9,1.6-1.2.7-1.1-1.79-1.2-3.19.7-.8-.9-2.69-1.1-4.59-1.1-1-1.1-.3-1.1-3.29-.8.1,1.89-2.1.4,1.6-3.59.4-2.29-1.6-3.19-2.19-.9v-1.6l-1.9-3.09.8-1.1.7-2.59-.8-1.89-2-2.29.6-2.59-1.4-1.7-3.29-2.09-1.6-1.4.7-1.6,1.9-1.8.3-2.69-1.8-4.09-.7-2.59,2.79.9.7-.5-.1-1.8-4.09-.7-.1-1.2,1.99.4,3.79-1.4,6.48-1.8,6.88-1.7,3.29-.5,1.99-2.19,1.9-1.7,3.79-.7,1.3-.8,2.79-1.2,6.58-1.2,5.49-.4,5.39,2.29-.9.3-2.99-1.2,2.19,3.49,1.1,1.2,1.99.9,1.7.3,4.89-.5,2.19-1.1.5.1,6.58.4,22.84.9,6.98.1h0Z"/>
        <path id="RO" class="cls-2" d="M568.51,281.31l1.5,1.59,1.8.9,3.99.9.6-1.2.9.3,1.6-.5,2.19-1.3,2.19-.2,2.19.7,1.9,1.8-.2,4.29-.7,2.09-6.18,1.3.4-.6-.7-1.99-1-1-.9,1.1.6,1.69-.7,1.4-.2,2.39.6.9-1.6,2-.5,1.3.8,4.79-.4,3.69h-2l-2.59-.5-2.19-.7-2.49-2.59-1.7.5-.9-.6-3.19-.4-4.49-2.29-2.89.4-4.39.9-3.19,1.2-3.29,2.09-1.2,1.6-1.6.9-2.29.6-4.19-.2-9.38-1.7-2.49.5-3.49-.4-5.29-1-3.89-.3-3.69.6-.9-1.8,1.8-2-4.29-2.49-.8-1.2-1.6-.9-.5-1.7,2.49-1.8-2.99-1.6-1.69.5-1.7,1.8-1.3.2-1-1.2-1.5-.7-3.49-.7-1.5-1.2-2.1-.6.2-.6,1.8-.8-2.29-1.1,1.5-1.99-.9-1.1-2.59-.8-3.79-1.9-2.19-1.8-.4-4.09-.8.2-1.8-1.99-2.89-1.7-1.7-1.99,3.19-.9,1.4.5,2.49-2,2.59.3,1.3-.9,1.5-4.69,2.09-1.5-.2-1.3,1.6-2.69v-1.2l1.4-1.5.7-2.49,1.4-1.4-.1-1.7,1.2-1,1.9-2.39,4.59-1.1,2.19-2.29,2.09-.9.9-1.2h.7l2.69,1.5,2.69-.1,6.88,1.4,3.59-.7,1.2.3,4.29,3.29,2.1-.5,1-1.2,3.39-1.3,8.38-1.2,1.1-1.9.2-1.4,3.69-.8h2.09l2.49,1.6,2.49,2.99,2.99,4.89,1.5,1.3,2.49,3.19,2.1,1.79,1.3,1.7,2.99,2.1,1.4,2.89,1.4,2.29.5,2.89-.9,4.79.1,2.59,1.4,4.99-.9.7,1.99,2.3h0Z"/>
        <path id="RS" class="cls-2" d="M468.96,271.23l1.7,1.99,2.89,1.7,1.8,1.99.8-.2.4,4.09,2.19,1.8,3.79,1.9,2.59.8.9,1.1-1.5,1.99,2.3,1.1-1.8.8-.2.6,2.09.6,1.5,1.2,3.49.7,1.5.7,1,1.2,1.3-.2,1.7-1.8,1.7-.5,2.99,1.6-2.49,1.8.5,1.7,1.6.9.8,1.2-.9.7-.2,1.9-2.1,1-.4,2.29.6,2.4,2.39,3.89,2.89,1.5,1.3,1.6,1.6,1-.3,1.4-1.6,1.7-1.1,1.6-1.8.1-1.1.6v3.29l1.4,2.89-1.1,1.7-1,.3-1.4-.7-2.29.8-1.9-.3-1.99.9-2.19.3-.6-1.3,1-.9,1.2-3.19.2-1.2-4.69-1.2v-1.3l-2.19-1.2-.2-.7-2.29-2.09-2.79-1.3-1.1-1.3-1.7.9.6,1.6-.4,1-1.7,1.3v1.4l-1.5.5-.1-1-5.29-2.89-2.09-.5-2.99-1.6-1.9-2-2.59-1.7-.4-1.2.7-.8,2.49.3.2-2.19-3.19-3.69.5-.8,3.09.1.3-.8-3.29-2.89-2.39-1.2-.5-.8.1-2.59,1.6-2.69.5-2.49-1.5-.8-2.79.7,1-1.6-.7-2.59,1.7-.4,2.29-.1-.9-1.5-2.99-1-1.2-1,.4-1.99-1.3-.4-.2-1.6-1.6-2.69.7-1.5,2.09-1.3,1.6.5,2.19-1,1.5-1.6,1-.3,2.89.4,1.1-.2,2.79.3,1,.5h0Z"/>
        <path id="SK" class="cls-2" d="M492.1,225.95l-1.5,2.99-.8,2.89-1.6,1.7.1,2.49-4.29,1.1-.6-.2-2.19-2.19-1.4-.9-4.59.7-2.49-.6-2.69-.1-1.79.4-1.6,3.49-4.99,2.49-3.49-1.4-.7.2-1,1.5-2.39.6-4.29.4-1.4.7-.4,1,.5,1.3-.6,1-6.98.4-4.69-.1-1.6-.7-4.19-2.69-2.1-.3-2.29-2.89-1.6-2.89-.1-.8.9-2.39,1.1-2.79,1.4-1.2,3.59.5,1.7-.2,1.5-.7,2.09-1.9,1.6-.8.7-2.99,2.29-1.2.6-.8,2-1.5,2.79-.3,1.3.2.5,1.5h2.19l1-1.7,2.19-1.3,2.99,2.99,1.4.4.6,2.69,1.4-.4,1.7.6,1.1-2.09,2.29-1,2.99-.1,2.39,1,1.8.1,1.4-1.5,3.19-.2,3.59.3,3.09,1,1,.7.8,1.4,5.69,1.9.9.2h0Z"/>
        <path id="SI" class="cls-2" d="M422.68,265.25l-2.49-.6-.9.8v1.7h-2l-.7,1-4.39,1.7-.4,1.4.9.9.2,2.19-.4,1.1-2.09.6-2.09,1,1,1.1-.7.7.8,2.29-1.2.4-1.6-.2-1.99-.7-1.3.5-1.5-.7-2.59-2.09-1.2,2.19-.6.3-3.59.1-1.1-.5-1.4,1.3-3.29-.8-.5-.6,1.7-1.1,1.5-.1-.2-1.3-1.5-1.3-1.9-1.1.4-2-1.3-.2-.3-1,1.6-2.09-2.29-.7-.7-1.4,3.29-2.29.2-.9,4.99.9,4.99.7,2.99-1.2,1-1.3,1.9-.7,2.59-.2,2.79.2,2.29-1.1,1.6-.2,2.39.5.1-1.89,1.3-.9,2.39.1,1.4,3.29,1.89,2.19h0Z"/>
        <path id="SE" class="cls-2" d="M412.51,102.46l-2.7,6.48-.99.3-2,4.59.3,3.79,1.5.3,1.99-7.58.6-.5.3-2.19,1.5-3.19-.5-2ZM432.06,97.18l1.39-.5,1.3-1.4-1.5-.9h-1.29l-3.29,1-1.3,1.1-2.69,2.89.59,3.19-.4.9,1.4,2.09.9.7-1.2,2.4,2.1-.9.3-1.6,1.49-1.59,1.8-.6.7-1.8,1.29-.5-1.49-1.19-.1-3.29ZM368.7,1.5l.92,2.41.1,1.2-1.7,2.19-7.08-.89-3.29.4-3.29,1.49-3.5,3.79-1.19,1,.5,1.5-2,2.79,2.69,4.09-1.09,1.09.6,2.8-.1,1.79,2.49,4.39v1.6l-.9,6.38,3.79,2.1,1.2.39,3.39,2.7-.4,1.89-1.29,2.5h-2.4l-1.79.6.29,1.59,3.1,4.89.49,1.4-.59,2.09-.1,2.79-1.9,2-1.29.8-2.6.69-.9,2.4-1.49,1.49,1.59,4.39-.59,3.89-.7,1.4-1.9.2-1-1.8-1.09-.79-1.1.2-.5,1.19.9,1.8.3,2.69.8,2.99.79,1.4,1.2.6.4,3.19,1.3,1.7,1.79.39.6,3.7,1.7.59,1.19,3.69,1.1-.3,1.3,3.2,3.49,4.68,1.79,1.2,1.9,2.4,1.89.59.6,1.5-.7,1-2.19.1,1.79,2.59-.99.5-2.4-.9,1.2,2.3,3.09,3.79,1.3,1.09.6,1.7-.2,3.09-.5,1,5.09,1,5.48-1.2,3.2.5h1.09l1.7-2-1.9-2.99v-1.5l2-2.09,1.69-1.1,2.3.2-.7-1.39.8-.4,2.99-.2,3.19.3,3.39-.5,2.4.9,1.79-1.4,1.3-4.09,1.89-3.09,1.5-5.29-.9-2.89,1.5-2.4.1-.99-1-2.1-.6-2.49.3-1.4,1.1-.1-.4-3.49.7-.8-1.7-3.19,2.99-.9-1.69-1.29-3.59-.4-.9.2-1-.9,3.69.1h3.79l1.3-.8,2.59-1,1.1-1.19,3.99-1.4,2.79-1.5,2-.69.8-1,.3-1.6,2.19-.5-1.4-1.19-2.59.6-1.4.69-1.99-.59,2.09-1,.6.1,3.79-2.1,1.3-1.29,2.59-1.5.1-1-.8-1.59-1.89-2-2.89-1v-1.49l-1.9-1.2-1.69-.3-2.9-2.19-.8-1.1-3.09.8-1.39-1.6-2.1.1-1.29-.9.09-1.59-1.09-2-.8-4.19-.7-1.89.1-1.1-.6-1.69.8-1.1,2.09-1.2-.69-1.79.89-4.29.1-1.3-1.29-1-.8-1.29.2-1.2,1.89.8,1.5-.7h1.2l1.69-1.8-1.59-2.79,2.09-.1.9.6.7-.8,2.19-.6,1-3.99,2.29-.3-.2-.79,2.4.2,1.89-1.5,1-1.8,1.5-.49,1.79.79,2.4-2.19,2.99-.7,2.39-1.59,3.09-1.3,2-4.29,2.19-1.7,2.1-1.09.24-.72h-78.36Z"/>
        <path id="TR" class="cls-2" d="M549.76,362l-2.2.6.1,1.49,2.89-.5-.79-1.59ZM630.55,337.66l-2.79,1.2-2.4,2.09-7.38,4.19-1.09,2.6-1.1.69-5.59.4-6.08-1.79-5.29.8-7.68-1.2-2.19.1-.6.7-.3,2.59,1,1.1,1.99,1.39,1.4.6,5.68.8-3.69.8-6.78,1.19-2,1.5,3.6,1.7-.5.5h-3.39l-1.4.2-4.39-.4-4.09.49.1-1.79-1.5-.4-1.69.5,1.59,1.49-1.39.9-3.19.1-1.9-.89-.8-1.2h-2.09l-1.3.89h-3.49l-2.99,3.1-1.7,2.69-1.69.6-.2,1.79.5,3.4-.6,1.29.3,1.6,3.09-.2,1.6-.6,4.28-.7,1.2.7-2.29,2.79-.3.8,2.49,2.69-.2,2.4,2.69,1.2-1.19,1.69-1.8,1.1,1.2,2.29,1.1,1.2,2.49,1.1-2.89.6-3.59-.7-.3-2.2-1-1.09-1.79.1.09.99.9,1.9-.99,1.1-.5,1.39.59.6,3.3,1.4,1.19-.7,1.7.9,1.1,1.29.79-.1,3.89,1.3.4,1.5-.1,2.49-1.89.5,1.99,3.09.3,1.6,4.19,2.19.3,1.3-3.59,1.39.4,1.6,1-.7,4.19.2,5.98-.3,1.2.5-1.7,1.2-.9,1.29-.89.4-3.89.4-2,.6,1,1,1.49.1,1.8-1,3.69-.2-.8,1.3,1.3.4,1-.7,1.19-1.9,2.4.1,3.19,1.6,2.29.4,1.8-.3,1.3,2.69.6,2,2.89,2.09,4.59,1.6,1.19-.1,3.69-1.3,1.9-.9,2.09,1,1.1-1.1.1-2.19.5-1.2-.1-4.19.7-1.09,3.99.29,5.28.7,5.49,2.84.15-80.89-.55.15ZM586.36,346.24l-8.08-3.29-1.99-1.4-2.3-2.69-.99-2,.1-1.79-1.7-.2-.9.4h-1.79l-1.5.6-3.39-2.5-3.49.3-1.5,1.1-3.39.4-1,2.19-1.89.3-.3,1.4,1.2.3,2.29,1.49.9,3.1-3.39,2.49.5,4.39-2.5,3.19-.8.4,1,1.79h3.29l5.39-.3-.7,1.3-3.29,1.6-2.29,1.99.3,1.7-.5,1.99,1.49-.7,1.5-2.19,3.49-3.69,2.49-1,3.3-1.89,1.99-2.4.6-2.09,3.09-.6,2.3.4,2.89-1.4,1.59.1,6.39,1.5,2.09-.5.9-3.49-1.4-.3Z"/>
        <path id="UA" class="cls-2" d="M608.91,268.64l.89.9,3.89.79v-.6l-4.78-1.09ZM630.35,276.52l-1.7.2-3.49,2.39-3.49,2.89,1.5,1.2,1.89-.5,1.9.2,3.69,2.4.54.18.02-9.45-.86.49ZM630.05,193.13l-3.09-.1.4-1-1.2-1.69-.5-2-1.29-1.89,2.89-.5.1-1-3.99-2.99-1.7-2.69-1.39-1.4-2.5-1.4-3.39.2-1.99-.3-1.6.2-2.69,1.2-1,.1-3.69-.9-1.6.6-.5,2.39-1.79.9-1.7.1-2.59-.8-4.99-.1-1.39.8-1.7-.4-1.1.5-2.19,2.3-.8,1.19-1,3.29,1.8,3.59-.8,1.4-2.69-.9-.5-1.19-2-1.1-7.08.6-2.29.8-.6-.5-2.49-3-3.79,1.6-.6,1.1-1-.3-.8-1.3-5.09-1-1.89.7-1.9-.5-1.19,1.7-.8-1.4-1.1-.4-2.99.1-1-.3-1.79-2.09h-2.3l-6.08-.9-6.48-1.49-7.78-.4-2.4.1-2.29.5-5.89.49-.8,1.4-1.59,1.6-1.9,1.19-1.09-.5-1.9-.29-1.1.49.1,1.4,1.2,1.8v1.29l2.69,2.8,1.9,2.79,1.39,1-1.19,1.29,1.79,2.6.1,1.29-1.19,1.8-3,.5-4.78,4.59-2.4,2.69-3.39,4.39-.6.99,1.5,3.79-.1,1.8,1.89,1.4-.39.89-3.3-.69-1.49,2.99-.8,2.89-1.6,1.7.1,2.49h1.5l1.4,2.29,2.19.8.9,1.1,2.29.4.9.7.7,1.69,2.09-.89.9-1.2h.7l2.69,1.49,2.69-.1,6.89,1.4,3.59-.7,1.19.3,4.29,3.29,2.1-.49h0s1-1.2,1-1.2l3.39-1.3,8.38-1.2,1.09-1.89.2-1.4,3.69-.8.2-.59,2.3-1.4.7.2,3.99.1,1.19-1,.8.3,1.6-1,3.49,1,3.59,2.39,2.49.3.6,1.2,5.59.6,1.39,1.89,1.4,1,1.4-.7,1.39,1.4.6,2.29-.6,3.1.6,1.19,2.29,1.2,2.9,1.99v2.4l.89,1.89,2,1.3,2.09.8,1,1.59.2,2.9,2.89,1.69-.59.7-2.9.4-1.19-1.3-1.6.6-2.09-.8-1.9-.2-2.09-.99-2.5,1.59.5,2.1,1,1.69-.4,2-2.3,1.69v1.3l-2.49,2.89.5,1.4-.4,1-1.99.2-1.1.7,1.49,1.59,1.8.9,3.99.9.6-1.2.9.3,1.59-.5,2.2-1.3,2.19-.2,2.2.7,1.89,1.8.1-1.3-1.1-3.09-.99-.9-.2-1.3.89-1.09,1.7.4,4.59-2.1,3.09-3.69,1.99-3.99.4-2.89,4.09-1.1,2.3.2,2.39-.8,3.19.5,2.2-1.2,2.09,1.8,2.89.5,2.4-.5-2.1,1.8-2.89-.5-3.19-.2-2-.5.1,1.29,3.79.6-.1,1-1.79.3v1l2.59.3,3.99,1.99,1.9.8,3.79-.8,1.79.1,3.1-.8.89.8,1.97.98.14-78.33-1.31-.45Z"/>
        <path id="XK" class="cls-2" d="M491.3,330.78l-2.1.4-1.5,1.89-1.6-1.2-1,.1-3.39,1.5-.2,2.59-.5.8-1.69-.3-.1-2.19-1.4-3.19-1.9-1.3-1.4-.5-2-2.89-.5-.4.2-1.3-.9-1.5,1.99-.4.2-.7,1.6-.4,1.5-.5v-1.4l1.69-1.3.4-1-.6-1.6,1.7-.9,1.1,1.3,2.79,1.3,2.29,2.09.2.7,2.19,1.2v1.3l4.69,1.2-.2,1.2-1.2,3.19-1,.9.6,1.3h0Z"/>
        <path id="NL" class="cls-1" d="M268.67,191.24l-1.19-.5-1.5.59-3.49-.69-2.79.4.3,1.29,1.19.7,1.2-.6,3.89,1.1,3.19-1.5.6-1.19-1.4.4ZM266.68,185.55l-1.6.7,1.6,1,1.5-.31-1.5-1.39ZM288.12,173.18l-1.69-.4-3.19,1.5-2.4,1.69.9.7,2.99.4,2.79-1.89,1.1-1.1-.5-.9ZM275.46,165.3l.59,1.4,1.1-1.1v-1.7l-1.69,1.4ZM302.39,172.18l1.09-3.79.7-1.69-.1-4.29-2.69-.6-1.8-1.7-8.87.5-2.1.4-3.99,1.6-.99.9-1,1.69-3.39,2-2,.79-1.39-.5-1,2-1.2,5.49-.9,1.99-3.19,3.79-1.39,1-1.6,2.69,2.29,2.1.6.99-1.2.9-3.99-.7-2.29.1-1.2.7,1.7,1.3,2.79.7,2.2-.5,2.59.8,2.09.29-.19-.89,1.39-.7,1.5.8,1.49-1,1.1,1.3,2.49-.8.5,1.59,2.6,1.4,1.89-.4,1.7,1.3,2.59,1.1-1,2.89-1.09,1.29.7,1.1,2.39.3,1.2.1.59-2.39-1.89-1.2.5-.8,2.19-1.59-.7-1.2,1.3-2.79v-1.2l-3.09-4.09.7-1.1,1.79-.7,2.3.8,4.48-1.29.7-1-.99-.9.29-.9,2.6-1.59.6-2.6-.8-.99-2.59-.3-.7-1,.6-1.6,3.09.1ZM288.12,175.28l-3.39,2.59-5.38-1.4.2-1.59-.1-2.6,2.09-.69v-.9l-1.6-1.6-.59-1.29,2.29-1.5,1.5-.3.4,2.49,2.79.4-.4,2.49.5.8,2.09.3.5,1.9-.9.9ZM286.43,172.78l-3.19,1.5-2.4,1.69.9.7,2.99.4,2.79-1.89,1.1-1.1-.5-.9-1.69-.4Z"/>
        <path id="ES" class="cls-1" d="M239.85,379.35l-2.7.7-1.19,1.6v1.5l1.99.39.4-.99,2.29-1.9-.79-1.3ZM263.89,369.38l-1.4-.4-1.3.5-1.19-.5.59-1.59-.5-1.2-3.19.9-1.49.89-5.29,3.69.3,1.2,1.4,1,1.69-1.3,1.4.7.3,1.6,3.99,1.69,2.09-1.29.6-1.4,2.19-3.49-.19-1ZM273.66,365.19l-2.09-.7-2.6.2-.1,1.4,1.6.4,3.89,1.89.3-.2.2-1.19-1.2-1.8ZM259.5,332.07l.2-1.39,1.79-.5-1.2-2.19-3.09-.6-3.79,1.09-1.19.8-4.69-1.19-2.1,1.09-1.29-1.19-2.8-1.2-2.79,1.1-.7-.4v-2.1l-1.09-1.49-1.7-.3-2.49-1-3.99-1.1-.8,2.4h-4.69l-.7-.4-3.09.4-3.19-2.1-3.59.4-2.2-2.09-2.19-.2-4.39-1.7-1.8.4.3-3.19-4.29-1.3-.49-1.3-2.5,1-2.59.3-1.8-.1-3.29-1.29-3.39-.6-2.09,1.29-4.69-1.29-2.3-1-2.09.6-1.5-.3-1.59.5-3.69.8h-2.7l-7.18-1.4-2.59-.8-4.39-.4-2.3-1-2.89.8-1.79-.1-3.19.3-1.7-.2-3.59.1-2,.5-2.49-.6-1.7-1.59-1.29-.6-1.1.1-1.3-.5-1.89.9-2,.2-3.19,1.69-.4.7.4,1.5-3.59,1.59-1.7.3-2.59-.3-1.89,1.5-2,1-.8,3.09,2.3,2.49,1.39.2-1.39,2.2.5,1.19,2.29-.89-.1,2.59,1,.99-1.2,1.9,1.6.2-2.6,2.59v2.5l1.3.1,1.2-1.1,1.89-.9,4.09-1,1,1.8-1.3,1.89.9,1.3,2.99-1.1,2.9-.1,2.19.8h1.4l2.49-.9.8-1.39,1.49.5,5.19.1.7,1.09.1,3.1,1.89.2,1.9.89.3,1.1-2.5,2.49-2.09,1.1-1.6,1.4-1.09,1.59-2,1.6.8,1.99.4,3.49-.4,3.8.4,1.09-2.69,2.1-.2.99,1.39,1.3v1.9l-1.69,3.49-1,.5h-4.29l-1.1.3,1.1,1.89,1.4,1.2.3,1.89,1.59,3.2,1.7.39.5.8-.6,2.4-3.19,2.99-.9,3.99,2.99,4.29,1.7-.2-.7,2.39-2.1.6-3.49,4.29-.79,2.19,1.09,6.39,2.99-.5,3.7.3,4.98,3.69,1.2,1.99-.2,1.6.3,1.4,1.5.59v1.1l1.19,3.09,1.6,2.2,1,.1,1.99,1.49,2.39,1,2.1-.8.3-1.19,1,.3.49-1.6,2.1-2.99,3.09-1.2h3.39l3.99-3.39,6.99-.6,3.19.3,1.89.5,2.3-.8,4.58.2,1.5.5,1.5-.5.99-1,1.9-.3,1.89.1,1.5,1.2,1-.5,2.19-2.59,1.9-4.49,1.99-2.39,4.09-2.8,6.49-.3,1.29-.79-1.29-1.2,1.79-4.39.5-2.49,1.3-.8.3-1.8,1.79-1.89,4.29-2.3,2.39-1.69.8-1-.6-1-2.39-1.09-2.2-2.7-1.59-5.48.1-1.6,3.19-5.59,1.5-2.09,1.49-1.5,2.6-3.29,2.89-4.59h.9l2.49-1.09.4-.6-1.2-1.2-1.1-.3,4.1-3.79,2.19-.5,4.49-1.49,6.58-1.5,2.89-2.69,8.68-4.69,2.99-2.79-.1-2.1-1.19-1.3Z"/>
        <path id="FR" class="cls-2" d="M340.19,332.57l-.6-6.48-1-1.69.3-2.3-.39-2.69-1.3-.5-.3,1.1.2,2.69-.6,1.2-1.89-.6-1.2,1.1-2.79.79-1.2.9-.9,1.9-.1,1.29.6.9-1.3,1.1.3.9,1.5.99v.8l-1,1.3,1.6.5.2.89-.4,1.7,2.19.9-1,1.79,1.2,1.1,3.79,1.99.8-1.09,1.6-4.29-.1-2.99,1.79-3.2ZM204.04,272.83l-1,.5,1.9,2.39.4-1.4-1.3-1.49ZM314.95,301.15l-3.29.6-5.08-2.39-.9-.9-.1-1.4-.7-1.29,1.4-2.5.79-.69h.01l-.5-1.7-3.19-1.4-1.5-3.09.8-.4,1.89.2,1.7-1.29,1.19-.3.8-2.5-1.79-1.59-1.7-2.6-.9-.59-.1-1.6,2.6-1.7-.9-1.39-2.29-2.3.49-1.69-.79-2.2-2.2-.3-1.89.1-2.3,1.5.5,1.3-2.29,1.59-1.4-.1v-.99l1.5-1,.3-1.5-.8-.7,1.1-2.89,2.99-2.19.5-2.9,2.09-.89,3.79-3.99.6-.9-1.3-1.1,1.8-1.39h1.1l.79.79,2.7-.3.79-1.39,1.5-.7-1.1-1.3v-1.49l.6-2-.2-2.39.3-1.5,1-1.79,1.4-5.49,3.49-3.79-.1-1.3-1.6-.6-4.79-.79-1.99-1.4-2.99.6-2.1-.1-.3-.9-1.39-.4-1.8.7-3.49-4.29-1.4-.1-1.29-.7-2,.6h-1.39l-2.1-1.2-3.39.4-2.79-2.59-3.3-1.5-1.69-.1-.4-1.99-.6-.6.8-2.69-1.9.59-.49,1.4-1.3.6-2.2.3-2.29-.3-.5-.6.7-1.4-.7-.69.4-1.6-1.6-1.1-3.59-.39-.89.29-.6-1.99-4.19-1.1-.5-1.99-1.6-1.8-3.19,1-2.89-2.39v-1.2l-.9-2.2-.9.5-6.38,1.1-2.89,1.6-1,2.19-.3,6.78-.5,1.3-1.19,1.8-2,1.39-3.79,1.3-3.69.7-5.19,2.49-.9,2.19.2.7,1.8.7-3.49,2-1.8.49-4.29-.79-2.99-.1-2.29-.5h-2.2l-1.09-1.6-.3-2.79-1.3-.4-2.69.6-3.19-.3-.2,1.4,2.09,4.29,1.3,1.69.2,5.99,1.49,2.49-4.69.2-.99-1-1.2,1.7-.9-.9-4.39-.1-3.09,1.7-1.2-1-2.49-2.79-2.69-.8-2.89.4-3,1.59-1.69.2-2.5-.2-5.78,1.4-2.3,1.2-.49,1.39.39,1.3,3.99-.1-.1,1.2-1.59-.3.2,1.19,2.19.9-.6.7-3.09.6-.6.7,3.09,1.09,1.3,2.2,1.1.3,1.89-.6,2,.1,4.79,1.3.8.69,2.19.4,1.3-.2,1.09,1.1,1.2.3,2.2-.3.19,1.7,2.6-.2,1.59.79-1.29,1.4.3,1.1,1.79.5,2.99.2-1.09,1.59,1.39.8.8,1.1-.9,1.79.4,1.7,1.6,1.89,1.69,2.6,4.79,2.59,2.99.6.5,5.88.5,1.8-1.79.6.49,1.29,3.6,2.3,1.79,2.29,1.1,4.59-.6-.1-.9-3.39-.8-1-3.09-2.39-.9,2.99-.49,2.79-.7,7.58,1.09-1.49,1,1.19-1.19.4-1,1.6-1.3,8.28-1.7,7.08-1.89,1.9-1.99.49.49,1.3,4.29,1.3-.3,3.19,1.8-.4,4.39,1.7,2.19.2,2.2,2.09,3.59-.4,3.19,2.1,3.09-.4.7.4h4.69l.8-2.4,3.99,1.1,2.49,1,1.7.3,1.09,1.49.9-.69,2.59.59v1.5l2.8,1.2,1.29,1.19,2.1-1.09,4.69,1.19,1.19-.8,3.79-1.09,3.09.6-1.59-2.5-.7-3.89.1-1.2,2.59-4.28,6.49-4.09,1.59-1.6,1.7-.5,1.4,1.4,5.88,1.79,1.99.1,1.5-.69,1.9-.3.79,1.49,2.5.1,1.09,1.8,3.4.8,1.69,1.19h2.8l1.09.4,2.3-1,2.39-.49,2-1.4.69-1.8,1.8-.99,3.89-3.4,2.39-1.09.8-.3.6-.3-.2-1.5,2.1-2.59-.31-2Z"/>
        <path id="PT" class="cls-1" d="M124.24,409.68l-1.2.2-4.49,2.49h-1.3l-2.49-1.1-4.49-.4-1.5-.3-1.79.7h-1.5l-1.1,1-.8-.3,1-2.1,1.6-4.09v-2.59l.4-2.19-.3-2.09-.7-1.4,1.1-3.49v-1.8l-.9-2.29,2.79.3-1.7-1.4h-1.5l-2.29.9-1.5.1.1-1.4-.5-1.79,2-.6,1.6-1.7-.3-1.6-1.2,1.1-.6,1.4-2.79.7-1.5-.5v-1.9l.6-1.7.4-2.29.8-2.19-.2-1.4,1.6-1.3,1.4-1.89,4.29-8.88-.6-1,1.7-6.58,1.2-2.29.6-4.29-.2-2-.7-2-.7-4.29v-1.4l-.9-1.8.1-1,1.4-1.7,1.2-1.1,1.9-.9,4.09-1,1,1.8-1.3,1.89.9,1.3,2.99-1.1,2.89-.1,2.19.8h1.4l2.49-.9.8-1.4,1.5.5,5.19.1.7,1.1.1,3.09,1.89.2,1.9.9.3,1.1-2.49,2.49-2.09,1.1-1.6,1.4-1.1,1.6-2,1.6.8,2,.4,3.49-.4,3.79.4,1.1-2.69,2.09-.2,1,1.4,1.3v1.89l-1.7,3.49-1,.5h-4.29l-1.1.3,1.1,1.9,1.4,1.2.3,1.9,1.6,3.19,1.7.4.5.8-.6,2.4-3.19,2.99-.9,3.99,2.99,4.29,1.7-.2-.7,2.39-2.1.6-3.49,4.29-.8,2.19,1.1,6.39h0Z"/>
      </g>
    </g>
    <path class="cls-4" d="M611.13,1.5h-341.71C121.45,1.5,1.5,121.45,1.5,269.41s119.95,267.92,267.92,267.92h341.71"/>
  </g>
  <g id="line">
    <path id="padding-path" class="cls-4" d="M106.09,481.81c45.21,34.82,101.85,55.53,163.33,55.53"/>
    <path id="outer-line" class="cls-5" d="M611.13,1.5h-341.71C121.45,1.5,1.5,121.45,1.5,269.42c0,86.49,40.98,163.41,104.59,212.39"/>
  </g>
</svg>